<?xml version="1.0" encoding="utf-8"?>
<!-- Generator: Adobe Illustrator 18.0.0, SVG Export Plug-In . SVG Version: 6.00 Build 0)  -->
<!DOCTYPE svg PUBLIC "-//W3C//DTD SVG 1.1//EN" "http://www.w3.org/Graphics/SVG/1.1/DTD/svg11.dtd">
<svg version="1.1" id="Layer_1" xmlns="http://www.w3.org/2000/svg" xmlns:xlink="http://www.w3.org/1999/xlink" x="0px" y="0px"
	 viewBox="0 0 200 200" enable-background="new 0 0 200 200" xml:space="preserve">
<g>
	<path fill-rule="evenodd" clip-rule="evenodd" fill="#A1A1A1" d="M10.9,129.6c0,0.3-0.2,0.6-0.3,0.8c-0.2,0.2-0.4,0.4-0.7,0.5
		c-0.3,0.1-0.5,0.1-0.8,0c-0.3-0.1-0.5-0.3-0.7-0.6c-0.1-0.1-0.1-0.2-0.2-0.4c0-0.1-0.1-0.3-0.1-0.4v-5.8c-0.3,0-0.5-0.1-0.8-0.2
		c-0.2-0.2-0.4-0.3-0.5-0.6c-0.1-0.2-0.1-0.5-0.1-0.7c0-0.3,0.1-0.5,0.3-0.7c0.2-0.2,0.3-0.3,0.5-0.3c0.2-0.1,0.3-0.1,0.5-0.1
		c0-0.5,0-0.9,0-1.3c0-0.4,0-0.9,0.1-1.3c0.1-0.7,0.3-1.3,0.6-1.8c0.3-0.5,0.7-0.9,1.2-1.1c0.5-0.3,1-0.4,1.6-0.5
		c0.6,0,1.2,0,1.8,0.3c0.3,0.1,0.5,0.2,0.8,0.3c0.2,0.1,0.5,0.3,0.6,0.5c0.1,0.2,0.2,0.3,0.3,0.5c0.1,0.2,0.1,0.4,0,0.6
		c0,0.2-0.1,0.4-0.2,0.6c-0.1,0.2-0.3,0.3-0.5,0.4c-0.3,0.1-0.6,0.2-0.8,0.1c-0.3-0.1-0.5-0.2-0.8-0.3c-0.2-0.1-0.3-0.1-0.5-0.2
		c-0.1-0.1-0.3-0.1-0.5-0.1c-0.2,0-0.3,0-0.4,0.1c-0.1,0.1-0.2,0.2-0.3,0.3c-0.1,0.1-0.2,0.3-0.2,0.4c-0.1,0.2-0.1,0.3-0.1,0.5
		c0,0.3,0,0.7,0,1c0,0.3,0,0.7,0,1c0.2,0,0.5,0,0.7,0c0.3,0,0.5,0,0.7,0c0.2,0,0.5,0,0.7,0c0.2,0,0.4,0,0.5,0.1
		c0.2,0.1,0.4,0.2,0.6,0.4c0.1,0.2,0.2,0.4,0.3,0.6c0,0.2,0,0.4-0.1,0.7c-0.1,0.2-0.2,0.4-0.4,0.6c-0.2,0.2-0.4,0.3-0.7,0.3
		c-0.3,0.1-0.5,0.1-0.8,0.1c-0.3,0-0.6,0-0.8,0c-0.3,0-0.5,0-0.7,0L10.9,129.6L10.9,129.6z"/>
	<path fill-rule="evenodd" clip-rule="evenodd" fill="#A1A1A1" d="M19.9,128.3c0.2-0.1,0.3-0.2,0.6-0.3c0.2-0.1,0.4-0.3,0.6-0.4
		c-0.1-0.8-0.2-1.6-0.2-2.3c0-0.8,0-1.6,0-2.4c-0.7,0.1-1.2,0.4-1.8,0.9c-0.5,0.5-0.9,1-1.1,1.6c-0.1,0.3-0.2,0.5-0.2,0.8
		c-0.1,0.3-0.1,0.5-0.1,0.8c0,0.3,0.1,0.6,0.3,0.9c0.2,0.2,0.3,0.4,0.6,0.5c0.2,0.1,0.5,0.2,0.7,0.2
		C19.4,128.4,19.7,128.3,19.9,128.3L19.9,128.3L19.9,128.3z M24.6,129.2c0.1,0.4,0.1,0.8-0.1,1.1c-0.2,0.3-0.4,0.5-0.7,0.6
		c-0.3,0.1-0.6,0.1-0.9,0c-0.3-0.1-0.6-0.3-0.9-0.7c-0.4,0.3-0.8,0.5-1.2,0.6c-0.4,0.1-0.8,0.2-1.3,0.2c-0.8,0-1.4,0-2-0.3
		c-0.6-0.2-1.1-0.5-1.5-0.9c-0.4-0.4-0.7-0.9-0.9-1.5c-0.2-0.6-0.3-1.3-0.2-2.1c0-0.3,0.1-0.6,0.2-0.9c0.1-0.3,0.2-0.6,0.3-0.9
		c0.1-0.3,0.3-0.7,0.5-1c0.2-0.4,0.4-0.7,0.6-0.9c0.8-1,1.8-1.7,3-2.1c0.2-0.1,0.5-0.1,0.8-0.2c0.3-0.1,0.7-0.1,1.1-0.1
		c0.4,0,0.7,0.1,1,0.1c0.3,0.1,0.6,0.2,0.7,0.5c0.1,0.2,0.2,0.3,0.3,0.5c0.1,0.1,0.1,0.3,0.1,0.4c0,0.1,0,0.3,0,0.5
		c0,0.2,0,0.4,0,0.6c0,0.4,0,0.8,0,1.2c0,0.4,0,0.8,0,1.2c0,0.1,0,0.3,0,0.5c0,0.2,0,0.4,0,0.7c0,0.2,0,0.5,0.1,0.7
		c0,0.2,0,0.4,0.1,0.5L24.6,129.2L24.6,129.2z"/>
	<path fill-rule="evenodd" clip-rule="evenodd" fill="#A1A1A1" d="M31.4,127.5c0.4-0.2,0.7-0.3,1-0.3c0.3,0,0.6,0.1,0.8,0.3
		c0.2,0.2,0.3,0.5,0.4,0.8c0,0.3-0.1,0.7-0.3,1c-0.2,0.3-0.4,0.5-0.7,0.7c-0.3,0.2-0.6,0.4-0.9,0.5c-0.6,0.3-1.3,0.4-2,0.4
		c-0.7,0-1.3-0.2-1.8-0.5c-0.6-0.3-1.1-0.7-1.5-1.2c-0.4-0.5-0.7-1.1-0.8-1.8c-0.3-1.3-0.2-2.6,0.2-3.8c0.2-0.4,0.4-0.9,0.6-1.3
		c0.2-0.4,0.5-0.8,0.8-1.1c0.3-0.3,0.7-0.6,1.1-0.9c0.4-0.3,0.8-0.4,1.3-0.5c0.3-0.1,0.7-0.1,1.2,0c0.5,0.1,1,0.2,1.5,0.4
		c0.5,0.2,0.9,0.4,1.2,0.7c0.4,0.3,0.6,0.7,0.6,1.1c0,0.2,0,0.5-0.1,0.6c-0.1,0.2-0.2,0.4-0.4,0.5c-0.2,0.1-0.3,0.2-0.6,0.3
		c-0.2,0-0.4,0-0.7,0c-0.3-0.1-0.5-0.2-0.6-0.3c-0.2-0.1-0.4-0.3-0.6-0.5c-0.1,0-0.2-0.1-0.3-0.1c-0.1-0.1-0.2-0.1-0.3-0.1l-0.6,0.1
		c-0.1,0.1-0.2,0.1-0.3,0.2c-0.1,0-0.2,0.1-0.3,0.1c-0.5,0.5-0.9,1.1-1.1,1.7c-0.2,0.6-0.3,1.3-0.2,2c0.1,0.5,0.2,0.8,0.4,1.1
		c0.2,0.3,0.5,0.5,0.7,0.6c0.3,0.1,0.6,0.1,0.9,0c0.3-0.1,0.7-0.3,1-0.6L31.4,127.5L31.4,127.5z"/>
	<path fill-rule="evenodd" clip-rule="evenodd" fill="#A1A1A1" d="M36.7,122.9c-0.3-0.1-0.6-0.2-0.8-0.4c-0.2-0.2-0.4-0.4-0.4-0.6
		c-0.1-0.2-0.1-0.5,0-0.7c0.1-0.3,0.3-0.5,0.5-0.7c0.2-0.2,0.5-0.3,0.8-0.3c0.3,0,0.6,0,0.9,0c0-0.1,0-0.3,0-0.7c0-0.3,0-0.7,0-1.1
		c0-0.4,0-0.8,0.1-1.2c0-0.4,0.1-0.6,0.2-0.8c0.3-0.4,0.7-0.6,1.1-0.6c0.4,0,0.8,0.2,1.1,0.6c0.1,0.1,0.1,0.2,0.2,0.3
		c0.1,0.1,0.1,0.2,0.1,0.3c0,0.5,0,1.1,0,1.6c0,0.5,0,1.1,0,1.6l1.7,0c0.3,0,0.5,0.1,0.7,0.3c0.2,0.2,0.3,0.4,0.4,0.6
		c0.1,0.2,0.1,0.5,0.1,0.7c0,0.3-0.1,0.5-0.3,0.6c-0.3,0.3-0.7,0.4-1.2,0.4c-0.5,0-0.9,0-1.4,0c0,0.8,0,1.6,0,2.4c0,0.8,0,1.6,0,2.4
		c0,0.3,0,0.7,0,1.1c0,0.4,0,0.7-0.1,1.1c-0.1,0.3-0.2,0.5-0.4,0.6c-0.2,0.2-0.4,0.3-0.6,0.3c-0.2,0-0.4,0-0.7,0
		c-0.2-0.1-0.5-0.2-0.7-0.4c-0.1-0.1-0.2-0.3-0.2-0.5c0-0.3-0.1-0.5-0.1-0.8c0-0.3,0-0.7,0-1c0-0.3,0-0.7,0-1.2c0-0.5,0-1,0-1.5
		c0-0.5,0-1,0-1.4c0-0.5,0-0.8,0-1.1L36.7,122.9L36.7,122.9z"/>
	<path fill-rule="evenodd" clip-rule="evenodd" fill="#A1A1A1" d="M45.9,125.4c0,0.2-0.1,0.5-0.1,0.7c0,0.2,0,0.5,0,0.7
		c0,0.3,0.1,0.6,0.3,0.9c0.1,0.3,0.3,0.5,0.6,0.7c0.2,0.2,0.5,0.3,0.8,0.3c0.3,0,0.6-0.1,0.9-0.3c0.4-0.3,0.8-0.6,1.1-1.2
		c0.3-0.5,0.5-1.1,0.6-1.6c0.1-0.6,0-1.1-0.2-1.6c-0.2-0.5-0.6-0.9-1.1-1.1c-0.4,0-0.7,0.1-1,0.2c-0.3,0.1-0.6,0.3-0.8,0.6
		c-0.2,0.2-0.4,0.5-0.6,0.8C46.2,124.8,46,125.1,45.9,125.4L45.9,125.4L45.9,125.4z M43.3,125c0.1-0.4,0.3-0.9,0.4-1.3
		c0.2-0.4,0.4-0.8,0.7-1.2c0.3-0.4,0.6-0.7,0.9-1c0.3-0.3,0.7-0.6,1.1-0.8c0.7-0.3,1.4-0.5,2-0.5c0.7,0,1.3,0.1,1.9,0.4
		c0.6,0.3,1.1,0.7,1.5,1.2c0.4,0.6,0.7,1.2,0.8,2c0.1,0.5,0.1,1,0.1,1.4c0,0.5,0,0.9-0.1,1.4c-0.1,0.7-0.4,1.4-0.9,2.1
		c-0.4,0.7-1,1.3-1.6,1.7c-0.6,0.5-1.3,0.8-2,0.9c-0.7,0.1-1.5,0-2.2-0.4c-0.3-0.2-0.6-0.3-0.9-0.6c-0.3-0.2-0.5-0.5-0.7-0.8
		c-0.3-0.3-0.4-0.7-0.6-1c-0.1-0.3-0.3-0.7-0.3-1.1c-0.1-0.4-0.1-0.8-0.1-1.2c0-0.4,0.1-0.8,0.2-1.2L43.3,125L43.3,125z"/>
	<path fill-rule="evenodd" clip-rule="evenodd" fill="#A1A1A1" d="M54.7,123.5C54.7,123.5,54.7,123.5,54.7,123.5c0-0.1,0-0.3,0-0.6
		c-0.2-0.1-0.4-0.3-0.6-0.5c-0.1-0.2-0.2-0.4-0.2-0.7c0-0.2,0-0.5,0.1-0.7c0.1-0.2,0.3-0.4,0.5-0.5c0.3-0.2,0.7-0.2,1.1-0.1
		c0.4,0.1,0.8,0.3,1,0.5c0.4-0.3,0.8-0.5,1.1-0.7c0.4-0.2,0.8-0.3,1.2-0.4c0.4-0.1,0.8-0.1,1.3,0c0.4,0.1,0.8,0.3,1.3,0.6
		c0.2,0.1,0.4,0.3,0.6,0.5c0.2,0.2,0.3,0.4,0.3,0.7c0.1,0.4,0,0.7-0.1,1c-0.1,0.3-0.3,0.5-0.6,0.6c-0.2,0.1-0.5,0.2-0.8,0.1
		c-0.3,0-0.6-0.2-0.8-0.5c-0.1-0.1-0.2-0.1-0.2-0.1c0,0-0.1-0.1-0.2-0.1c-0.2,0-0.5,0-0.7,0c-0.2,0.1-0.5,0.2-0.7,0.4
		c-0.2,0.2-0.4,0.3-0.6,0.5c-0.2,0.2-0.3,0.3-0.5,0.5l0,5.6c0,0.2,0,0.4-0.1,0.6c-0.1,0.3-0.3,0.6-0.6,0.7c-0.3,0.1-0.6,0.2-0.9,0.1
		c-0.3-0.1-0.5-0.2-0.8-0.4c-0.2-0.2-0.3-0.5-0.3-0.9L54.7,123.5L54.7,123.5z"/>
	<path fill-rule="evenodd" clip-rule="evenodd" fill="#A1A1A1" d="M71.2,120.5c0.2-0.3,0.4-0.5,0.7-0.6c0.3-0.1,0.5-0.1,0.8-0.1
		c0.3,0.1,0.5,0.2,0.7,0.4c0.2,0.2,0.3,0.5,0.4,0.8c0,0.3,0,0.6-0.1,1.1c-0.1,0.5-0.3,0.9-0.5,1.4c-0.2,0.5-0.4,0.9-0.6,1.4
		c-0.2,0.4-0.3,0.8-0.5,1c-0.5,1.1-1,2.2-1.6,3.2c-0.6,1.1-1.2,2.1-1.8,3.2c-0.1,0.2-0.2,0.4-0.3,0.6c-0.1,0.2-0.2,0.5-0.4,0.7
		c-0.1,0.3-0.3,0.5-0.4,0.7c-0.1,0.2-0.3,0.4-0.4,0.5c-0.3,0.3-0.5,0.4-0.8,0.4c-0.3,0-0.5,0-0.8-0.1c-0.2-0.1-0.4-0.3-0.6-0.6
		c-0.1-0.3-0.2-0.6-0.2-0.9c0-0.1,0.1-0.3,0.2-0.5c0.1-0.2,0.2-0.4,0.4-0.7c0.1-0.2,0.3-0.4,0.4-0.6c0.1-0.2,0.2-0.4,0.3-0.5
		c0.3-0.5,0.6-1,0.9-1.5c0.3-0.5,0.6-1,0.8-1.5c-1-0.8-1.8-1.7-2.5-2.7c-0.7-1-1.3-2.1-1.6-3.3c-0.1-0.2-0.2-0.4-0.2-0.6
		c-0.1-0.2-0.1-0.4-0.1-0.6c0-0.3,0.1-0.5,0.2-0.7c0.1-0.2,0.3-0.4,0.4-0.5c0.2-0.1,0.4-0.2,0.6-0.2c0.2,0,0.5,0,0.7,0.2
		c0.2,0.1,0.3,0.2,0.4,0.4c0.1,0.2,0.2,0.4,0.3,0.6c0.1,0.2,0.1,0.4,0.2,0.6c0,0.2,0.1,0.4,0.2,0.6c0.6,1.4,1.5,2.7,2.7,3.7
		c0.4-0.9,0.8-1.8,1.1-2.7c0.3-0.9,0.6-1.8,0.9-2.7L71.2,120.5L71.2,120.5z"/>
	<path fill-rule="evenodd" clip-rule="evenodd" fill="#A1A1A1" d="M88.4,125.4c0,0.2-0.1,0.5-0.1,0.7c0,0.2,0,0.5,0,0.7
		c0,0.3,0.1,0.6,0.3,0.9c0.1,0.3,0.3,0.5,0.6,0.7c0.2,0.2,0.5,0.3,0.8,0.3c0.3,0,0.6-0.1,0.9-0.3c0.4-0.3,0.8-0.6,1.1-1.2
		c0.3-0.5,0.5-1.1,0.6-1.6c0.1-0.6,0-1.1-0.2-1.6c-0.2-0.5-0.6-0.9-1.1-1.1c-0.4,0-0.7,0.1-1,0.2c-0.3,0.1-0.6,0.3-0.8,0.6
		c-0.2,0.2-0.4,0.5-0.6,0.8C88.6,124.8,88.5,125.1,88.4,125.4L88.4,125.4L88.4,125.4z M85.8,125c0.1-0.4,0.3-0.9,0.4-1.3
		c0.2-0.4,0.4-0.8,0.7-1.2c0.3-0.4,0.6-0.7,0.9-1c0.3-0.3,0.7-0.6,1.1-0.8c0.7-0.3,1.4-0.5,2-0.5c0.7,0,1.3,0.1,1.9,0.4
		c0.6,0.3,1.1,0.7,1.5,1.2c0.4,0.6,0.7,1.2,0.8,2c0.1,0.5,0.1,1,0.1,1.4c0,0.5,0,0.9-0.1,1.4c-0.1,0.7-0.4,1.4-0.9,2.1
		c-0.4,0.7-1,1.3-1.6,1.7c-0.6,0.5-1.3,0.8-2,0.9c-0.7,0.1-1.5,0-2.2-0.4c-0.3-0.2-0.6-0.3-0.9-0.6c-0.3-0.2-0.5-0.5-0.7-0.8
		c-0.3-0.3-0.4-0.7-0.6-1c-0.1-0.3-0.3-0.7-0.3-1.1c-0.1-0.4-0.1-0.8-0.1-1.2c0-0.4,0.1-0.8,0.2-1.2L85.8,125L85.8,125z"/>
	<path fill-rule="evenodd" clip-rule="evenodd" fill="#A1A1A1" d="M100.6,129.6c0,0.3-0.2,0.6-0.3,0.8c-0.2,0.2-0.4,0.4-0.7,0.5
		c-0.3,0.1-0.5,0.1-0.8,0c-0.3-0.1-0.5-0.3-0.7-0.6c-0.1-0.1-0.1-0.2-0.2-0.4c0-0.1-0.1-0.3-0.1-0.4v-5.8c-0.3,0-0.5-0.1-0.8-0.2
		c-0.2-0.2-0.4-0.3-0.5-0.6c-0.1-0.2-0.1-0.5-0.1-0.7c0-0.3,0.1-0.5,0.3-0.7c0.2-0.2,0.3-0.3,0.5-0.3c0.2-0.1,0.3-0.1,0.5-0.1
		c0-0.5,0-0.9,0-1.3c0-0.4,0-0.9,0.1-1.3c0.1-0.7,0.3-1.3,0.6-1.8c0.3-0.5,0.7-0.9,1.2-1.1c0.5-0.3,1-0.4,1.6-0.5
		c0.6,0,1.2,0,1.8,0.3c0.3,0.1,0.5,0.2,0.8,0.3c0.2,0.1,0.5,0.3,0.6,0.5c0.1,0.2,0.2,0.3,0.3,0.5c0.1,0.2,0.1,0.4,0,0.6
		c0,0.2-0.1,0.4-0.2,0.6c-0.1,0.2-0.3,0.3-0.5,0.4c-0.3,0.1-0.6,0.2-0.8,0.1c-0.3-0.1-0.5-0.2-0.8-0.3c-0.2-0.1-0.3-0.1-0.5-0.2
		c-0.1-0.1-0.3-0.1-0.5-0.1c-0.2,0-0.3,0-0.4,0.1c-0.1,0.1-0.2,0.2-0.3,0.3c-0.1,0.1-0.2,0.3-0.2,0.4c-0.1,0.2-0.1,0.3-0.1,0.5
		c0,0.3,0,0.7,0,1c0,0.3,0,0.7,0,1c0.2,0,0.5,0,0.7,0c0.3,0,0.5,0,0.7,0c0.2,0,0.5,0,0.7,0c0.2,0,0.4,0,0.5,0.1
		c0.2,0.1,0.4,0.2,0.6,0.4c0.1,0.2,0.2,0.4,0.3,0.6c0,0.2,0,0.4-0.1,0.7c-0.1,0.2-0.2,0.4-0.4,0.6c-0.2,0.2-0.4,0.3-0.7,0.3
		c-0.3,0.1-0.5,0.1-0.8,0.1c-0.3,0-0.6,0-0.8,0c-0.3,0-0.5,0-0.7,0L100.6,129.6L100.6,129.6z"/>
	<path fill-rule="evenodd" clip-rule="evenodd" fill="#A1A1A1" d="M119,123.5c-0.3,0.2-0.6,0.4-0.7,0.7c-0.2,0.3-0.3,0.7-0.4,1.2
		c0.4-0.1,0.8-0.2,1.3-0.4c0.5-0.1,0.9-0.3,1.4-0.4c0.4-0.1,0.8-0.3,1.1-0.5c0.3-0.2,0.4-0.4,0.4-0.6c0-0.1,0-0.2-0.1-0.3
		c0-0.1-0.1-0.2-0.2-0.2c-0.4-0.1-0.8-0.2-1.3-0.1c-0.4,0.1-0.8,0.2-1.1,0.4L119,123.5L119,123.5z M123.5,127.3
		c0.3-0.1,0.7-0.1,0.9,0c0.3,0.1,0.5,0.2,0.6,0.4c0.1,0.2,0.2,0.4,0.2,0.7c0,0.3-0.1,0.6-0.4,0.9c-0.2,0.3-0.5,0.5-0.8,0.6
		c-0.3,0.2-0.6,0.3-0.9,0.4c-0.7,0.3-1.4,0.5-2,0.6c-0.6,0.1-1.2,0.1-1.8,0c-0.6-0.1-1.1-0.3-1.6-0.6c-0.5-0.3-0.9-0.8-1.4-1.4
		c-0.3-0.4-0.5-0.9-0.6-1.4c-0.1-0.5-0.2-1-0.2-1.6c0-0.5,0-1,0.1-1.6c0.1-0.5,0.2-1,0.4-1.4c0.3-0.5,0.6-1,1.2-1.4
		c0.5-0.4,1.1-0.8,1.8-1c0.7-0.3,1.3-0.4,2-0.4c0.7,0,1.3,0.1,1.8,0.3c0.4,0.2,0.8,0.5,1.1,0.9c0.3,0.4,0.5,0.8,0.6,1.3
		c0.1,0.5,0.1,0.9,0,1.4c-0.1,0.5-0.3,0.9-0.7,1.3c-0.4,0.4-0.8,0.7-1.2,0.9c-0.4,0.2-0.9,0.4-1.4,0.6c-0.5,0.2-0.9,0.3-1.4,0.4
		c-0.5,0.1-1,0.3-1.4,0.4c0.3,0.4,0.7,0.6,1.1,0.7c0.4,0.1,0.8,0.1,1.2,0.1c0.4-0.1,0.9-0.2,1.3-0.4c0.4-0.2,0.9-0.4,1.2-0.6
		L123.5,127.3L123.5,127.3z"/>
	<path fill-rule="evenodd" clip-rule="evenodd" fill="#A1A1A1" d="M132.4,123.9v-0.3c-0.1-0.3-0.3-0.6-0.6-0.7
		c-0.3-0.1-0.6-0.2-0.9-0.3c-0.2,0.1-0.3,0.1-0.5,0.2c-0.1,0.1-0.2,0.2-0.3,0.2c-0.1,0.1-0.2,0.2-0.2,0.3c-0.1,0.1-0.2,0.2-0.3,0.3
		v5.8c0,0.5-0.1,0.8-0.4,1.1c-0.3,0.3-0.6,0.4-0.9,0.4c-0.3,0-0.6,0-0.9-0.2c-0.3-0.2-0.4-0.5-0.4-1c0-1.1,0-2.4,0-3.8
		c0-1.4,0-3.1,0-4.8c0-0.3,0.1-0.6,0.3-0.8c0.2-0.2,0.4-0.3,0.7-0.4c0.3-0.1,0.5-0.1,0.8,0c0.3,0.1,0.5,0.2,0.7,0.5
		c0.8-0.4,1.6-0.5,2.5-0.4c0.8,0.2,1.5,0.5,2.2,1.2c0.3-0.3,0.6-0.6,0.9-0.8c0.3-0.2,0.7-0.4,1.1-0.5c0.5-0.1,0.9-0.1,1.4,0
		c0.5,0.1,0.9,0.3,1.3,0.5c0.4,0.3,0.7,0.6,1,0.9c0.3,0.4,0.5,0.8,0.7,1.2c0.1,0.3,0.1,0.6,0.1,0.8l0,6c0,0.2,0,0.3-0.1,0.5
		c-0.1,0.4-0.3,0.6-0.6,0.8c-0.3,0.2-0.6,0.2-0.9,0.2c-0.3,0-0.6-0.2-0.8-0.4c-0.2-0.2-0.3-0.6-0.3-0.9l0-5.9
		c-0.1-0.4-0.3-0.6-0.6-0.8c-0.2-0.2-0.5-0.2-0.8-0.2c-0.3,0-0.5,0.1-0.8,0.3c-0.3,0.2-0.4,0.4-0.6,0.7v5.8c0,0.4-0.1,0.7-0.4,1
		c-0.3,0.3-0.5,0.4-0.9,0.5c-0.3,0.1-0.6,0-0.9-0.1c-0.3-0.1-0.4-0.4-0.5-0.8L132.4,123.9L132.4,123.9z"/>
	<path fill-rule="evenodd" clip-rule="evenodd" fill="#A1A1A1" d="M144.7,125.4c0,0.2-0.1,0.5-0.1,0.7c0,0.2,0,0.5,0,0.7
		c0,0.3,0.1,0.6,0.3,0.9c0.1,0.3,0.3,0.5,0.6,0.7c0.2,0.2,0.5,0.3,0.8,0.3c0.3,0,0.6-0.1,0.9-0.3c0.4-0.3,0.8-0.6,1.1-1.2
		c0.3-0.5,0.5-1.1,0.6-1.6c0.1-0.6,0-1.1-0.2-1.6c-0.2-0.5-0.6-0.9-1.1-1.1c-0.4,0-0.7,0.1-1,0.2c-0.3,0.1-0.6,0.3-0.8,0.6
		c-0.2,0.2-0.4,0.5-0.6,0.8C144.9,124.8,144.8,125.1,144.7,125.4L144.7,125.4L144.7,125.4z M142,125c0.1-0.4,0.3-0.9,0.4-1.3
		c0.2-0.4,0.4-0.8,0.7-1.2c0.3-0.4,0.6-0.7,0.9-1c0.3-0.3,0.7-0.6,1.1-0.8c0.7-0.3,1.4-0.5,2-0.5c0.7,0,1.3,0.1,1.9,0.4
		c0.6,0.3,1.1,0.7,1.5,1.2c0.4,0.6,0.7,1.2,0.8,2c0.1,0.5,0.1,1,0.1,1.4c0,0.5,0,0.9-0.1,1.4c-0.1,0.7-0.4,1.4-0.9,2.1
		c-0.4,0.7-1,1.3-1.6,1.7c-0.6,0.5-1.3,0.8-2,0.9c-0.7,0.1-1.5,0-2.2-0.4c-0.3-0.2-0.6-0.3-0.9-0.6c-0.3-0.2-0.5-0.5-0.7-0.8
		c-0.3-0.3-0.4-0.7-0.6-1c-0.1-0.3-0.3-0.7-0.3-1.1c-0.1-0.4-0.1-0.8-0.1-1.2c0-0.4,0.1-0.8,0.2-1.2L142,125L142,125z"/>
	<path fill-rule="evenodd" clip-rule="evenodd" fill="#A1A1A1" d="M153.5,122.9c-0.3-0.1-0.6-0.2-0.8-0.4c-0.2-0.2-0.4-0.4-0.4-0.6
		c-0.1-0.2-0.1-0.5,0-0.7c0.1-0.3,0.3-0.5,0.5-0.7c0.2-0.2,0.5-0.3,0.8-0.3c0.3,0,0.6,0,0.9,0c0-0.1,0-0.3,0-0.7c0-0.3,0-0.7,0-1.1
		c0-0.4,0-0.8,0.1-1.2c0-0.4,0.1-0.6,0.2-0.8c0.3-0.4,0.7-0.6,1.1-0.6c0.4,0,0.8,0.2,1.1,0.6c0.1,0.1,0.1,0.2,0.2,0.3
		c0.1,0.1,0.1,0.2,0.1,0.3c0,0.5,0,1.1,0,1.6c0,0.5,0,1.1,0,1.6l1.7,0c0.3,0,0.5,0.1,0.7,0.3c0.2,0.2,0.3,0.4,0.4,0.6
		c0.1,0.2,0.1,0.5,0.1,0.7c0,0.3-0.1,0.5-0.3,0.6c-0.3,0.3-0.7,0.4-1.2,0.4c-0.5,0-0.9,0-1.4,0c0,0.8,0,1.6,0,2.4c0,0.8,0,1.6,0,2.4
		c0,0.3,0,0.7,0,1.1c0,0.4,0,0.7-0.1,1.1c-0.1,0.3-0.2,0.5-0.4,0.6c-0.2,0.2-0.4,0.3-0.6,0.3c-0.2,0-0.4,0-0.7,0
		c-0.2-0.1-0.5-0.2-0.7-0.4c-0.1-0.1-0.2-0.3-0.2-0.5c0-0.3-0.1-0.5-0.1-0.8c0-0.3,0-0.7,0-1c0-0.3,0-0.7,0-1.2c0-0.5,0-1,0-1.5
		c0-0.5,0-1,0-1.4c0-0.5,0-0.8,0-1.1L153.5,122.9L153.5,122.9z"/>
	<path fill-rule="evenodd" clip-rule="evenodd" fill="#A1A1A1" d="M161.5,117.1c0.1-0.5,0.3-0.9,0.6-1.2c0.3-0.3,0.6-0.4,1-0.4
		c0.3,0,0.7,0.1,1,0.4c0.3,0.3,0.5,0.6,0.5,1.1c0,0.5-0.1,0.9-0.4,1.2c-0.3,0.3-0.6,0.4-1,0.5c-0.4,0-0.7-0.1-1-0.3
		c-0.3-0.2-0.5-0.6-0.6-1.1L161.5,117.1L161.5,117.1z M164.4,129.6c0,0.3-0.1,0.6-0.3,0.8c-0.2,0.2-0.4,0.4-0.6,0.5
		c-0.2,0.1-0.5,0.1-0.7,0.1c-0.3-0.1-0.5-0.2-0.7-0.5c-0.1-0.1-0.2-0.3-0.3-0.5c0-0.2-0.1-0.4-0.1-0.6c0-0.2,0-0.4,0-0.6
		c0-0.2,0-0.4,0-0.5c0-0.9,0-1.7,0-2.6c0-0.9,0-1.7,0-2.6c0-0.3,0-0.7-0.1-1.1c0-0.4,0-0.7,0.1-1.1c0.1-0.3,0.2-0.5,0.4-0.7
		c0.2-0.2,0.4-0.3,0.6-0.4c0.2-0.1,0.5-0.1,0.7,0c0.3,0.1,0.5,0.2,0.6,0.5c0.2,0.3,0.3,0.6,0.3,0.9c0,0.3,0,0.6,0,1c0,0.5,0,1,0,1.5
		c0,0.5,0,1,0,1.5c0,0.7,0,1.4,0,2.1c0,0.7,0,1.4,0,2.1V129.6L164.4,129.6z"/>
	<path fill-rule="evenodd" clip-rule="evenodd" fill="#A1A1A1" d="M169.1,125.4c0,0.2-0.1,0.5-0.1,0.7c0,0.2,0,0.5,0,0.7
		c0,0.3,0.1,0.6,0.3,0.9c0.1,0.3,0.3,0.5,0.6,0.7c0.2,0.2,0.5,0.3,0.8,0.3c0.3,0,0.6-0.1,0.9-0.3c0.4-0.3,0.8-0.6,1.1-1.2
		c0.3-0.5,0.5-1.1,0.6-1.6c0.1-0.6,0-1.1-0.2-1.6c-0.2-0.5-0.6-0.9-1.1-1.1c-0.4,0-0.7,0.1-1,0.2c-0.3,0.1-0.6,0.3-0.8,0.6
		c-0.2,0.2-0.4,0.5-0.6,0.8C169.4,124.8,169.2,125.1,169.1,125.4L169.1,125.4L169.1,125.4z M166.5,125c0.1-0.4,0.3-0.9,0.4-1.3
		c0.2-0.4,0.4-0.8,0.7-1.2c0.3-0.4,0.6-0.7,0.9-1c0.3-0.3,0.7-0.6,1.1-0.8c0.7-0.3,1.4-0.5,2-0.5c0.7,0,1.3,0.1,1.9,0.4
		c0.6,0.3,1.1,0.7,1.5,1.2c0.4,0.6,0.7,1.2,0.8,2c0.1,0.5,0.1,1,0.1,1.4c0,0.5,0,0.9-0.1,1.4c-0.1,0.7-0.4,1.4-0.9,2.1
		c-0.4,0.7-1,1.3-1.6,1.7c-0.6,0.5-1.3,0.8-2,0.9c-0.7,0.1-1.5,0-2.2-0.4c-0.3-0.2-0.6-0.3-0.9-0.6c-0.3-0.2-0.5-0.5-0.7-0.8
		c-0.3-0.3-0.4-0.7-0.6-1c-0.1-0.3-0.3-0.7-0.3-1.1c-0.1-0.4-0.1-0.8-0.1-1.2c0-0.4,0.1-0.8,0.2-1.2L166.5,125L166.5,125z"/>
	<path fill-rule="evenodd" clip-rule="evenodd" fill="#A1A1A1" d="M186.3,129.6c0,0.4-0.2,0.7-0.4,0.9c-0.2,0.2-0.5,0.4-0.8,0.4
		c-0.3,0.1-0.6,0-0.8-0.1c-0.3-0.1-0.5-0.4-0.6-0.8c-0.1-0.4-0.2-0.8-0.2-1.3c0-0.4,0-0.9,0-1.2c0-0.8,0-1.6,0-2.4
		c0-0.8,0-1.6-0.1-2.4c0,0,0-0.1,0-0.1c0,0,0-0.1-0.1-0.1c-0.3-0.1-0.7-0.1-1.1,0.1c-0.4,0.1-0.7,0.3-1,0.5
		c-0.2,0.2-0.5,0.5-0.7,0.8c-0.2,0.3-0.3,0.7-0.3,1l0,3c0,0.2,0,0.5,0,0.8c0,0.3,0,0.6,0,0.8c0,0.3-0.1,0.5-0.3,0.7
		c-0.1,0.2-0.3,0.4-0.6,0.5c-0.2,0.1-0.3,0.1-0.5,0.1c-0.1,0-0.3,0-0.5-0.1c-0.3-0.1-0.5-0.2-0.6-0.5c-0.1-0.2-0.2-0.4-0.3-0.7
		c0-0.2-0.1-0.5,0-0.7c0-0.2,0-0.4,0-0.5c0-0.3,0-0.8,0-1.5c0-0.6,0-1.3,0-2c0-0.7,0-1.4,0-2c0-0.6,0-1.1,0-1.5
		c0-0.3,0.1-0.6,0.3-0.8c0.2-0.2,0.4-0.3,0.7-0.4c0.3-0.1,0.5,0,0.8,0c0.3,0.1,0.5,0.3,0.7,0.6c0.6-0.4,1.2-0.6,1.9-0.8
		c0.7-0.1,1.4-0.1,2,0.1c0.6,0.2,1.1,0.5,1.6,1c0.4,0.5,0.6,1.2,0.7,2c0,0,0,0.1,0,0.3c0,0.1,0,0.3,0,0.6L186.3,129.6L186.3,129.6z"
		/>
	<path fill-rule="evenodd" clip-rule="evenodd" fill="#A1A1A1" d="M187.5,128.7c-0.1-0.3-0.1-0.5-0.1-0.7c0-0.2,0.1-0.5,0.2-0.7
		c0.1-0.2,0.3-0.3,0.5-0.5c0.2-0.1,0.5-0.1,0.7-0.1c0.2,0,0.3,0.1,0.4,0.1c0.1,0.1,0.3,0.2,0.4,0.3c0.1,0.1,0.2,0.2,0.3,0.3
		c0.1,0.1,0.2,0.2,0.3,0.3c0.3,0.2,0.5,0.3,0.8,0.4c0.3,0.1,0.6,0.2,0.9,0.2c0.2,0,0.4,0,0.5-0.2c0.1-0.1,0.2-0.2,0.3-0.4
		c0-0.1,0-0.3,0-0.5c0-0.2-0.1-0.3-0.2-0.4c-0.3-0.3-0.6-0.4-0.9-0.5c-0.4-0.1-0.7-0.2-1-0.3c-0.4-0.1-0.9-0.3-1.3-0.6
		c-0.4-0.2-0.8-0.5-1-0.9c-0.3-0.4-0.4-0.9-0.5-1.3c0-0.5,0-0.9,0.1-1.4c0.1-0.4,0.3-0.9,0.6-1.2c0.3-0.4,0.6-0.7,1.1-0.9
		c0.3-0.2,0.6-0.3,1-0.3c0.4-0.1,0.7-0.1,1.1,0c0.4,0,0.7,0.1,1.1,0.2c0.4,0.1,0.7,0.2,1,0.4c0.3,0.2,0.6,0.4,0.8,0.7
		c0.2,0.3,0.3,0.6,0.3,0.9c0,0.3-0.1,0.6-0.3,0.8c-0.2,0.2-0.5,0.3-0.9,0.3c-0.2,0-0.4,0-0.6-0.1c-0.2-0.1-0.4-0.2-0.6-0.2
		c-0.3-0.1-0.6-0.2-0.9-0.2c-0.3,0-0.6,0-0.7,0.1c-0.1,0-0.1,0.1-0.2,0.1c-0.1,0.1-0.1,0.2-0.2,0.3c0,0.1,0,0.2,0,0.4
		c0,0.1,0.1,0.2,0.2,0.3c0.3,0.2,0.7,0.3,1.1,0.4c0.4,0.1,0.8,0.2,1.2,0.4c0.4,0.1,0.7,0.3,1.1,0.5c0.3,0.2,0.6,0.5,0.8,0.9
		c0.3,0.6,0.5,1.1,0.5,1.7c0,0.6-0.1,1.2-0.4,1.7c-0.3,0.5-0.6,1-1.1,1.4c-0.5,0.4-1,0.6-1.7,0.7c-0.5,0-0.9,0-1.3-0.1
		c-0.4-0.1-0.9-0.3-1.3-0.5c-0.4-0.2-0.8-0.5-1.1-0.8c-0.3-0.3-0.7-0.6-0.9-0.9L187.5,128.7L187.5,128.7z"/>
	<path fill-rule="evenodd" clip-rule="evenodd" fill="#FF9900" d="M6.5,65.2c0.2-1.6,0.7-2.7,1.6-3.4C9,61.1,10,60.7,11,60.7
		c1,0,1.9,0.4,2.8,1.2c0.9,0.8,1.3,1.8,1.4,3.2c0.1,1.4-0.3,2.5-1.1,3.3c-0.8,0.8-1.8,1.2-2.8,1.3c-1,0.1-2-0.2-3-0.9
		c-0.9-0.7-1.5-1.7-1.7-3.2L6.5,65.2L6.5,65.2z M14.8,101.2c-0.1,0.9-0.4,1.6-0.9,2.2c-0.5,0.6-1.1,1.1-1.7,1.4
		c-0.6,0.3-1.4,0.4-2.1,0.2c-0.8-0.2-1.4-0.6-2-1.4c-0.3-0.4-0.6-0.9-0.7-1.4c-0.1-0.5-0.2-1.1-0.3-1.6c0-0.6,0-1.1,0-1.7
		c0-0.6,0-1.1,0-1.5c0-2.5,0-4.9,0-7.4c0-2.4,0-4.9,0-7.4c0-1-0.1-2-0.2-3.1c-0.1-1-0.1-2.1,0.2-3.1c0.2-0.8,0.6-1.4,1.1-2
		c0.5-0.5,1.1-0.9,1.8-1.1c0.6-0.2,1.3-0.2,2-0.1c0.7,0.2,1.3,0.6,1.8,1.3c0.7,0.8,1,1.7,1,2.5c0,0.8,0,1.8,0,3c0,1.4,0,2.9,0,4.3
		c0,1.4,0,2.8,0.1,4.2c0,2,0.1,4.1,0.1,6.1c0,2,0,4.1,0,6.1V101.2L14.8,101.2z"/>
	<path fill-rule="evenodd" clip-rule="evenodd" fill="#CCCC33" d="M46.6,101.3c-0.1,1.1-0.5,1.9-1.2,2.6c-0.7,0.7-1.4,1.1-2.2,1.3
		c-0.8,0.2-1.6,0.1-2.4-0.3c-0.8-0.4-1.3-1.1-1.6-2.2c-0.4-1.2-0.5-2.4-0.4-3.7c0.1-1.3,0.1-2.5,0.1-3.6c0-2.3,0-4.5,0-6.8
		c0-2.3-0.1-4.5-0.3-6.8c0-0.1-0.1-0.2-0.1-0.2c0-0.1-0.1-0.2-0.3-0.3c-1-0.3-2-0.2-3.1,0.2c-1.1,0.4-2,0.9-2.8,1.5
		c-0.7,0.5-1.3,1.3-2,2.2c-0.6,0.9-1,1.9-1,2.8l0,8.7c0,0.7,0,1.4,0.1,2.2c0,0.8,0,1.6-0.1,2.3c-0.1,0.8-0.4,1.5-0.7,2.1
		c-0.4,0.6-1,1.1-1.8,1.4c-0.5,0.2-0.9,0.2-1.3,0.2c-0.4,0-0.8-0.2-1.3-0.3c-0.8-0.3-1.3-0.7-1.7-1.3c-0.3-0.6-0.6-1.3-0.7-2
		c-0.1-0.7-0.2-1.4-0.2-2c0-0.6,0-1.2,0-1.5c0-1,0-2.4,0-4.2c0-1.8,0-3.8,0-5.8c0-2,0-4,0-5.8c0-1.8,0-3.2,0-4.2
		c0-0.9,0.3-1.7,0.8-2.3c0.5-0.6,1.2-1,1.9-1.2c0.7-0.2,1.5-0.1,2.3,0.1c0.8,0.3,1.5,0.8,2.1,1.7c1.7-1.1,3.5-1.8,5.6-2.2
		c2-0.4,3.9-0.3,5.7,0.2c1.8,0.5,3.3,1.5,4.5,2.8c1.2,1.4,1.8,3.3,1.9,5.8c0,0.1,0,0.3,0.1,0.8c0,0.4,0.1,1,0.1,1.8L46.6,101.3
		L46.6,101.3z"/>
	<path fill-rule="evenodd" clip-rule="evenodd" fill="#99CCFF" d="M61.1,99c0.5,0.4,0.8,1,1.2,1.6c0.3,0.6,0.5,1.3,0.5,2
		c0,0.6-0.1,1.3-0.4,1.8c-0.3,0.6-0.9,1-1.7,1.3c-0.6,0.2-1.3,0.3-2.1,0.1c-0.8-0.1-1.5-0.4-2.2-0.8c-0.7-0.4-1.4-0.8-2-1.4
		c-0.6-0.5-1-1.1-1.2-1.7c-0.1-0.2-0.1-0.5-0.2-0.7c0-0.3-0.1-0.5-0.1-0.7l0-35.1c0-1,0.4-1.8,1.1-2.5c0.7-0.7,1.5-1.1,2.4-1.2
		c0.4,0,0.9,0,1.4,0.2c0.5,0.2,0.9,0.4,1.4,0.7c0.4,0.3,0.8,0.7,1,1.1c0.3,0.4,0.4,0.9,0.4,1.3c0,1.1,0,2.5,0,4.4c0,1.8,0,3.8,0,5.9
		c0,2.1,0,4.4,0,6.7c0,2.3,0,4.5,0,6.6c0,2.1,0,4,0,5.8c0,1.7,0,3.1-0.1,4.2L61.1,99L61.1,99z"/>
	<path fill-rule="evenodd" clip-rule="evenodd" fill="#663399" d="M94,98c0.4,0.5,0.6,1.2,0.7,1.9c0.1,0.7,0,1.4-0.2,2.1
		c-0.2,0.7-0.6,1.2-1.1,1.6c-0.5,0.4-1.2,0.6-2.1,0.6c-1.1-0.1-2-0.5-2.6-1.1c-0.7-0.7-1.3-1.4-1.9-2.3c-1.6,1.3-3.3,2.3-5.1,2.8
		c-1.7,0.5-3.5,0.6-5.1,0.4c-1.7-0.3-3.3-1-4.7-2.1c-1.5-1.1-2.7-2.6-3.7-4.5c-0.9-1.8-1.4-3.7-1.5-5.9c-0.1-2.1-0.1-4.2-0.1-6.1
		c0-0.7,0-1.3,0.1-2c0-0.7,0.1-1.3,0.1-2.1c0-0.6,0.1-1.1,0.1-1.6c0-0.5,0-1,0.1-1.5c0.1-0.5,0.2-0.9,0.4-1.4
		c0.2-0.5,0.5-0.9,0.8-1.3c0.5-0.6,1.1-0.9,1.8-1c0.7-0.1,1.4,0,2.1,0.2c0.6,0.3,1.2,0.6,1.7,1.2c0.5,0.5,0.7,1.2,0.8,1.9
		c0.1,2.1,0,4.3-0.2,6.5c-0.2,2.2-0.2,4.3,0,6.4c0.1,1,0.3,2,0.8,3.1c0.4,1.1,1.1,1.8,2.1,2.3c1,0.4,1.9,0.4,2.9-0.1
		c1-0.5,1.8-1.1,2.4-1.7c0.3-0.3,0.6-0.7,0.8-1.1c0.3-0.4,0.6-0.7,0.9-1c-0.2-1.5-0.3-3-0.3-4.4c0-1.5,0-3,0-4.4
		c0-0.8,0-1.7,0.1-2.6c0.1-0.9,0.2-1.9,0.5-2.7c0.3-0.9,0.7-1.6,1.2-2.3c0.5-0.6,1.3-1.1,2.3-1.2c0.5-0.1,0.9,0,1.4,0.1
		c0.4,0.2,0.8,0.4,1.2,0.7c0.6,0.5,1,1.1,1.2,1.7c0.2,0.6,0.3,1.3,0.3,2c0,0.7,0,1.4-0.2,2.2c-0.1,0.7-0.2,1.4-0.2,2.1
		c-0.1,1.2-0.1,2.4-0.2,3.7c0,1.3,0,2.6,0.1,3.9c0.1,1.3,0.4,2.6,0.7,3.8C92.8,95.9,93.3,97,94,98L94,98L94,98z"/>
	<path fill-rule="evenodd" clip-rule="evenodd" fill="#FF9900" d="M97.9,98.7c-0.2-0.7-0.4-1.4-0.3-2.1c0-0.7,0.2-1.3,0.5-1.9
		c0.3-0.6,0.8-1,1.4-1.3c0.6-0.3,1.3-0.4,2.1-0.3c0.5,0,0.9,0.2,1.3,0.4c0.4,0.2,0.7,0.5,1,0.8c0.3,0.3,0.6,0.6,1,1
		c0.3,0.3,0.6,0.6,1,0.9c0.7,0.6,1.5,1,2.3,1.2c0.8,0.3,1.6,0.4,2.5,0.6c0.6,0,1.1-0.1,1.4-0.4c0.4-0.3,0.6-0.6,0.7-1.1
		c0.1-0.4,0.2-0.9,0.1-1.4c-0.1-0.5-0.2-0.9-0.5-1.2c-0.7-0.7-1.6-1.2-2.6-1.4c-1-0.2-2-0.5-2.9-0.8c-1.3-0.4-2.5-1-3.7-1.6
		c-1.2-0.7-2.2-1.6-3-2.7c-0.8-1.2-1.3-2.4-1.4-3.8c-0.2-1.3,0-2.6,0.3-3.9c0.4-1.3,1-2.4,1.8-3.5c0.8-1.1,1.9-1.9,3-2.6
		c0.9-0.5,1.9-0.8,2.9-1c1.1-0.1,2.1-0.2,3.2-0.1c1.1,0.1,2.1,0.3,3.2,0.6c1.1,0.3,2,0.7,2.9,1c1,0.5,1.8,1.1,2.3,2
		c0.5,0.8,0.8,1.7,0.7,2.6c0,0.9-0.3,1.6-0.9,2.2c-0.6,0.6-1.4,0.9-2.5,0.9c-0.7,0-1.3-0.1-1.8-0.3c-0.5-0.2-1.1-0.5-1.7-0.7
		c-0.8-0.3-1.6-0.5-2.5-0.6c-0.9-0.1-1.6-0.1-2.1,0.2c-0.2,0-0.4,0.2-0.6,0.4c-0.2,0.2-0.4,0.5-0.5,0.9c-0.1,0.3-0.1,0.7-0.1,1
		c0.1,0.3,0.3,0.6,0.7,0.8c1,0.5,2.1,1,3.2,1.3c1.1,0.3,2.3,0.6,3.3,1c1.1,0.4,2.1,0.9,3.1,1.5c0.9,0.6,1.7,1.4,2.4,2.5
		c0.9,1.6,1.4,3.3,1.4,5c0,1.7-0.3,3.4-1,4.9c-0.7,1.5-1.8,2.8-3.2,3.9c-1.4,1.1-3,1.7-4.9,1.9c-1.3,0.1-2.6,0-3.8-0.2
		c-1.3-0.3-2.5-0.7-3.7-1.3c-1.2-0.6-2.3-1.3-3.3-2.2c-1-0.8-1.9-1.7-2.7-2.6L97.9,98.7L97.9,98.7z"/>
	<path fill-rule="evenodd" clip-rule="evenodd" fill="#CCCC33" d="M125.4,65.2c0.2-1.6,0.7-2.7,1.6-3.4c0.9-0.7,1.9-1.1,2.9-1.1
		c1,0,1.9,0.4,2.8,1.2c0.9,0.8,1.3,1.8,1.4,3.2c0.1,1.4-0.3,2.5-1.1,3.3c-0.8,0.8-1.8,1.2-2.8,1.3c-1,0.1-2-0.2-3-0.9
		c-0.9-0.7-1.5-1.7-1.7-3.2L125.4,65.2L125.4,65.2z M133.7,101.2c-0.1,0.9-0.4,1.6-0.9,2.2c-0.5,0.6-1.1,1.1-1.7,1.4
		c-0.6,0.3-1.4,0.4-2.1,0.2c-0.8-0.2-1.4-0.6-2-1.4c-0.3-0.4-0.6-0.9-0.7-1.4c-0.1-0.5-0.2-1.1-0.3-1.6c0-0.6,0-1.1,0-1.7
		c0-0.6,0-1.1,0-1.5c0-2.5,0-4.9,0-7.4c0-2.4,0-4.9,0-7.4c0-1-0.1-2-0.2-3.1c-0.1-1-0.1-2.1,0.2-3.1c0.2-0.8,0.6-1.4,1.1-2
		c0.5-0.5,1.1-0.9,1.8-1.1c0.6-0.2,1.3-0.2,2-0.1c0.7,0.2,1.3,0.6,1.8,1.3c0.7,0.8,1,1.7,1,2.5c0,0.8,0,1.8,0,3c0,1.4,0,2.9,0,4.3
		c0,1.4,0,2.8,0.1,4.2c0,2,0.1,4.1,0.1,6.1c0,2,0,4.1,0,6.1L133.7,101.2L133.7,101.2z"/>
	<path fill-rule="evenodd" clip-rule="evenodd" fill="#663399" d="M195.3,101.3c-0.1,1.1-0.5,1.9-1.2,2.6c-0.7,0.7-1.4,1.1-2.2,1.3
		c-0.8,0.2-1.6,0.1-2.4-0.3c-0.8-0.4-1.3-1.1-1.6-2.2c-0.4-1.2-0.5-2.4-0.4-3.7c0.1-1.3,0.1-2.5,0.1-3.6c0-2.3,0-4.5,0-6.8
		c0-2.3-0.1-4.5-0.3-6.8c0-0.1-0.1-0.2-0.1-0.2c0-0.1-0.1-0.2-0.3-0.3c-1-0.3-2-0.2-3.1,0.2c-1.1,0.4-2,0.9-2.8,1.5
		c-0.7,0.5-1.3,1.3-2,2.2c-0.6,0.9-1,1.9-1,2.8l0,8.7c0,0.7,0,1.4,0.1,2.2c0,0.8,0,1.6-0.1,2.3c-0.1,0.8-0.4,1.5-0.7,2.1
		c-0.4,0.6-1,1.1-1.8,1.4c-0.5,0.2-0.9,0.2-1.3,0.2c-0.4,0-0.8-0.2-1.3-0.3c-0.8-0.3-1.3-0.7-1.7-1.3c-0.3-0.6-0.6-1.3-0.7-2
		c-0.1-0.7-0.2-1.4-0.2-2c0-0.6,0-1.2,0-1.5c0-1,0-2.4,0-4.2c0-1.8,0-3.8,0-5.8c0-2,0-4,0-5.8c0-1.8,0-3.2,0-4.2
		c0-0.9,0.3-1.7,0.8-2.3c0.5-0.6,1.2-1,1.9-1.2c0.7-0.2,1.5-0.1,2.3,0.1c0.8,0.3,1.5,0.8,2.1,1.7c1.7-1.1,3.5-1.8,5.6-2.2
		c2-0.4,3.9-0.3,5.7,0.2c1.8,0.5,3.3,1.5,4.5,2.8c1.2,1.4,1.8,3.3,1.9,5.8c0,0.1,0,0.3,0.1,0.8c0,0.4,0.1,1,0.1,1.8L195.3,101.3
		L195.3,101.3z"/>
	<path fill-rule="evenodd" clip-rule="evenodd" fill="#99CCFF" d="M146.7,89.2c-0.1,0.7-0.2,1.3-0.3,2c-0.1,0.6-0.1,1.3,0,2
		c0.1,1,0.4,1.9,0.8,2.6c0.4,0.8,0.9,1.4,1.6,1.9c0.6,0.5,1.4,0.7,2.2,0.7c0.8,0,1.7-0.2,2.7-0.8c1.2-0.7,2.3-1.8,3.2-3.3
		c0.9-1.5,1.4-3.1,1.6-4.7c0.2-1.6,0-3.2-0.5-4.6c-0.6-1.5-1.6-2.5-3.2-3.1c-1,0-2,0.2-2.9,0.6c-0.9,0.4-1.7,0.9-2.3,1.6
		c-0.6,0.6-1.2,1.4-1.7,2.3C147.4,87.3,147,88.2,146.7,89.2L146.7,89.2L146.7,89.2z M139.1,87.8c0.3-1.2,0.7-2.4,1.2-3.6
		c0.5-1.2,1.2-2.3,1.9-3.4c0.8-1.1,1.6-2.1,2.6-2.9c0.9-0.9,2-1.6,3.1-2.1c1.9-1,3.9-1.5,5.8-1.5c2,0,3.8,0.4,5.5,1.2
		c1.7,0.8,3.1,2,4.3,3.6c1.2,1.6,2,3.5,2.3,5.6c0.2,1.4,0.3,2.8,0.3,4.1c0,1.3-0.1,2.6-0.4,4c-0.4,2-1.3,4-2.6,5.9
		c-1.3,1.9-2.8,3.6-4.6,4.9c-1.8,1.3-3.7,2.2-5.9,2.6c-2.1,0.4-4.3,0.1-6.4-1c-1-0.5-1.8-1-2.6-1.6c-0.8-0.6-1.5-1.3-2.1-2.2
		c-0.7-0.9-1.3-1.9-1.7-2.9c-0.4-1-0.7-2.1-1-3.2c-0.3-1.2-0.4-2.4-0.3-3.6c0.1-1.2,0.2-2.4,0.4-3.5L139.1,87.8L139.1,87.8z"/>
</g>
</svg>
