<?xml version="1.0" encoding="utf-8"?>
<!-- Generator: Adobe Illustrator 15.1.0, SVG Export Plug-In . SVG Version: 6.00 Build 0)  -->
<!DOCTYPE svg PUBLIC "-//W3C//DTD SVG 1.1//EN" "http://www.w3.org/Graphics/SVG/1.1/DTD/svg11.dtd">
<svg version="1.1" id="Layer_1" xmlns="http://www.w3.org/2000/svg" xmlns:xlink="http://www.w3.org/1999/xlink" x="0px" y="0px"
	 width="200px" height="200px" viewBox="0 0 200 200" enable-background="new 0 0 200 200" xml:space="preserve">
<g>
	<path fill-rule="evenodd" clip-rule="evenodd" fill="#A1A1A1" d="M17.407,135.575c-0.044,0.296-0.143,0.549-0.318,0.769
		s-0.384,0.362-0.604,0.45c-0.231,0.077-0.473,0.077-0.714,0c-0.242-0.088-0.439-0.264-0.604-0.55
		c-0.066-0.11-0.121-0.219-0.164-0.34c-0.034-0.121-0.056-0.241-0.056-0.363v-5.317c-0.252,0-0.494-0.066-0.703-0.209
		c-0.208-0.144-0.362-0.319-0.46-0.527c-0.099-0.209-0.131-0.429-0.11-0.671c0.022-0.229,0.132-0.45,0.318-0.659
		c0.143-0.143,0.286-0.241,0.44-0.284c0.153-0.057,0.318-0.078,0.494-0.101c-0.01-0.418-0.022-0.824-0.033-1.229
		c0-0.396,0.022-0.803,0.088-1.209c0.087-0.638,0.275-1.175,0.571-1.615c0.296-0.45,0.658-0.791,1.098-1.033s0.922-0.385,1.46-0.417
		c0.549-0.044,1.098,0.032,1.679,0.241c0.242,0.077,0.472,0.176,0.703,0.298c0.22,0.12,0.417,0.274,0.593,0.461
		c0.121,0.143,0.208,0.296,0.264,0.483c0.055,0.175,0.055,0.363,0.021,0.539c-0.033,0.186-0.098,0.351-0.197,0.506
		c-0.099,0.153-0.242,0.272-0.429,0.352c-0.264,0.109-0.516,0.141-0.757,0.087c-0.252-0.055-0.495-0.143-0.747-0.263
		c-0.143-0.056-0.286-0.11-0.417-0.166c-0.132-0.055-0.274-0.089-0.428-0.12c-0.143-0.022-0.285,0-0.406,0.065
		c-0.121,0.065-0.22,0.154-0.307,0.264c-0.088,0.12-0.154,0.253-0.198,0.384c-0.055,0.144-0.077,0.286-0.077,0.418
		c-0.011,0.309-0.011,0.625-0.011,0.945c0.011,0.308,0.011,0.626,0.011,0.935c0.208-0.013,0.417-0.022,0.647-0.044
		c0.23-0.013,0.45-0.013,0.681-0.013c0.22,0,0.417,0,0.615,0.013c0.186,0.021,0.329,0.044,0.438,0.087
		c0.22,0.076,0.396,0.198,0.527,0.374c0.132,0.164,0.22,0.353,0.264,0.538c0.033,0.197,0.022,0.396-0.055,0.604
		c-0.077,0.198-0.198,0.374-0.396,0.518c-0.175,0.143-0.374,0.23-0.604,0.285s-0.472,0.099-0.724,0.109
		c-0.253,0.023-0.506,0.033-0.747,0.023c-0.241,0-0.461-0.012-0.647-0.012V135.575L17.407,135.575z"/>
	<path fill-rule="evenodd" clip-rule="evenodd" fill="#A1A1A1" d="M25.664,134.3c0.142-0.088,0.318-0.198,0.505-0.309
		c0.187-0.12,0.351-0.251,0.505-0.395c-0.121-0.714-0.198-1.428-0.22-2.143c-0.011-0.716-0.011-1.429,0.011-2.165
		c-0.604,0.11-1.142,0.374-1.636,0.792c-0.483,0.417-0.813,0.912-1.011,1.472c-0.077,0.232-0.143,0.473-0.198,0.714
		c-0.054,0.241-0.077,0.474-0.055,0.703c0.011,0.308,0.088,0.572,0.242,0.78c0.143,0.209,0.319,0.362,0.527,0.473
		s0.439,0.165,0.669,0.187C25.235,134.421,25.455,134.388,25.664,134.3L25.664,134.3L25.664,134.3z M29.945,135.211
		c0.099,0.396,0.087,0.715-0.066,0.968c-0.143,0.264-0.352,0.429-0.615,0.516c-0.263,0.089-0.549,0.078-0.856-0.032
		c-0.307-0.099-0.582-0.318-0.813-0.637c-0.374,0.273-0.736,0.473-1.098,0.593c-0.352,0.11-0.757,0.176-1.219,0.188
		c-0.692,0.032-1.296-0.044-1.833-0.232c-0.548-0.176-0.999-0.449-1.373-0.813c-0.362-0.361-0.637-0.824-0.813-1.362
		c-0.176-0.549-0.241-1.175-0.187-1.891c0.033-0.296,0.077-0.592,0.154-0.867c0.076-0.286,0.164-0.56,0.251-0.835
		c0.11-0.296,0.264-0.614,0.461-0.944c0.187-0.342,0.385-0.627,0.593-0.869c0.724-0.89,1.636-1.527,2.723-1.922
		c0.187-0.066,0.439-0.132,0.768-0.176c0.319-0.056,0.648-0.077,0.978-0.077c0.33,0.011,0.648,0.056,0.944,0.131
		c0.308,0.078,0.539,0.221,0.681,0.43c0.121,0.152,0.208,0.297,0.263,0.417c0.055,0.121,0.088,0.253,0.088,0.386
		c0.011,0.131,0.011,0.286,0,0.438c0,0.154-0.011,0.341-0.011,0.57c0,0.375,0,0.748-0.01,1.101c0,0.361,0,0.725,0.01,1.088
		c0,0.12,0,0.273,0,0.473c0,0.196,0.011,0.395,0.022,0.615c0.011,0.218,0.033,0.417,0.055,0.613
		c0.022,0.198,0.044,0.353,0.088,0.474L29.945,135.211L29.945,135.211z"/>
	<path fill-rule="evenodd" clip-rule="evenodd" fill="#A1A1A1" d="M36.237,133.575c0.34-0.21,0.659-0.308,0.955-0.286
		c0.308,0.033,0.561,0.132,0.747,0.318c0.197,0.176,0.307,0.429,0.329,0.726c0.021,0.308-0.088,0.626-0.318,0.956
		c-0.143,0.23-0.352,0.438-0.637,0.625c-0.275,0.198-0.538,0.343-0.791,0.452c-0.593,0.263-1.197,0.383-1.8,0.362
		c-0.604-0.022-1.164-0.176-1.68-0.44c-0.527-0.274-0.966-0.647-1.35-1.119c-0.374-0.484-0.626-1.045-0.769-1.671
		c-0.264-1.221-0.209-2.385,0.165-3.494c0.153-0.406,0.33-0.803,0.538-1.176c0.209-0.373,0.461-0.726,0.758-1.033
		c0.295-0.307,0.625-0.582,0.988-0.813c0.362-0.242,0.758-0.396,1.186-0.473c0.296-0.055,0.681-0.055,1.131,0.012
		c0.461,0.054,0.911,0.176,1.35,0.352c0.428,0.176,0.813,0.395,1.142,0.681c0.33,0.285,0.516,0.627,0.56,1.011
		c0.022,0.219,0,0.418-0.077,0.594c-0.088,0.186-0.197,0.34-0.352,0.461c-0.143,0.121-0.318,0.198-0.504,0.252
		c-0.198,0.045-0.395,0.045-0.604-0.01c-0.242-0.066-0.428-0.166-0.571-0.276c-0.143-0.109-0.33-0.263-0.56-0.448
		c-0.099-0.034-0.208-0.078-0.296-0.133c-0.099-0.065-0.197-0.088-0.308-0.077l-0.538,0.065c-0.099,0.055-0.187,0.1-0.264,0.145
		c-0.087,0.031-0.165,0.076-0.241,0.119c-0.461,0.451-0.802,0.968-1.01,1.527c-0.22,0.55-0.275,1.154-0.165,1.803
		c0.066,0.418,0.198,0.758,0.396,1.033c0.197,0.262,0.417,0.449,0.681,0.548c0.263,0.11,0.56,0.122,0.867,0.034
		c0.318-0.077,0.637-0.265,0.944-0.539L36.237,133.575L36.237,133.575z"/>
	<path fill-rule="evenodd" clip-rule="evenodd" fill="#A1A1A1" d="M41.024,129.377c-0.275-0.065-0.505-0.188-0.703-0.352
		c-0.198-0.153-0.329-0.34-0.406-0.559c-0.066-0.221-0.066-0.44,0-0.672c0.077-0.23,0.241-0.44,0.494-0.626
		c0.22-0.153,0.462-0.241,0.736-0.241c0.264,0,0.527,0,0.78,0c0-0.089,0-0.296-0.011-0.616c-0.022-0.318-0.022-0.659-0.011-1.043
		c0-0.375,0.022-0.736,0.066-1.078c0.044-0.34,0.109-0.581,0.22-0.713c0.274-0.374,0.604-0.561,0.999-0.539
		c0.396,0.022,0.725,0.209,0.978,0.582c0.055,0.065,0.11,0.144,0.153,0.242c0.055,0.088,0.077,0.177,0.077,0.252
		c0.011,0.496,0.011,0.979,0.011,1.462c-0.011,0.483-0.011,0.966-0.011,1.451h1.592c0.242,0,0.45,0.088,0.626,0.241
		c0.176,0.164,0.296,0.352,0.373,0.571c0.078,0.208,0.1,0.44,0.056,0.659c-0.033,0.231-0.132,0.417-0.308,0.571
		c-0.308,0.253-0.67,0.385-1.076,0.406c-0.417,0.012-0.834,0.022-1.263,0.022c0,0.736-0.011,1.473-0.011,2.22
		c-0.011,0.735-0.011,1.482,0.011,2.219c0,0.319,0.011,0.659,0.044,0.988c0.033,0.343,0.011,0.66-0.066,0.968
		c-0.066,0.242-0.187,0.439-0.34,0.583c-0.165,0.143-0.351,0.23-0.549,0.263c-0.197,0.034-0.406,0.022-0.626-0.044
		c-0.22-0.054-0.417-0.175-0.604-0.329c-0.099-0.099-0.166-0.265-0.22-0.483c-0.044-0.231-0.077-0.473-0.088-0.735
		c-0.01-0.298-0.011-0.605,0-0.946c0-0.273,0-0.615,0-1.055c0-0.429,0-0.878-0.011-1.341c0-0.462-0.011-0.9-0.011-1.318
		c0-0.417,0-0.747,0-0.988L41.024,129.377L41.024,129.377z"/>
	<path fill-rule="evenodd" clip-rule="evenodd" fill="#A1A1A1" d="M49.522,131.696c-0.044,0.22-0.077,0.429-0.099,0.636
		c-0.033,0.21-0.033,0.419,0,0.638c0.044,0.308,0.121,0.594,0.252,0.847c0.132,0.264,0.297,0.461,0.505,0.604
		c0.209,0.154,0.451,0.229,0.714,0.242c0.274,0,0.56-0.088,0.867-0.254c0.396-0.23,0.725-0.581,1.011-1.065
		c0.286-0.473,0.461-0.978,0.527-1.493c0.066-0.518,0.011-1.012-0.165-1.474c-0.175-0.472-0.516-0.802-1.032-1
		c-0.33,0-0.637,0.067-0.922,0.188c-0.285,0.131-0.527,0.297-0.735,0.506c-0.209,0.208-0.396,0.46-0.549,0.735
		C49.742,131.092,49.621,131.389,49.522,131.696L49.522,131.696L49.522,131.696z M47.096,131.279
		c0.099-0.396,0.23-0.781,0.395-1.154c0.176-0.385,0.374-0.736,0.615-1.088c0.242-0.341,0.517-0.649,0.824-0.935
		c0.297-0.286,0.626-0.516,0.978-0.691c0.615-0.319,1.24-0.483,1.866-0.495c0.626,0,1.208,0.121,1.746,0.373
		c0.539,0.265,1,0.637,1.373,1.143c0.385,0.507,0.625,1.111,0.747,1.814c0.066,0.45,0.109,0.889,0.109,1.295
		c0.011,0.419-0.033,0.847-0.132,1.287c-0.132,0.637-0.406,1.263-0.813,1.89c-0.405,0.626-0.9,1.153-1.471,1.57
		c-0.571,0.43-1.196,0.715-1.877,0.847c-0.681,0.131-1.361,0.021-2.053-0.329c-0.307-0.144-0.592-0.32-0.834-0.518
		c-0.252-0.187-0.472-0.417-0.681-0.692c-0.231-0.296-0.406-0.603-0.538-0.933c-0.121-0.32-0.231-0.66-0.308-1.001
		c-0.099-0.385-0.132-0.759-0.099-1.144c0.022-0.384,0.077-0.757,0.143-1.119L47.096,131.279L47.096,131.279z"/>
	<path fill-rule="evenodd" clip-rule="evenodd" fill="#A1A1A1" d="M57.548,129.916c0,0.055,0.011,0.044,0.022-0.045
		c0.011-0.087,0.011-0.252-0.022-0.472c-0.208-0.121-0.384-0.286-0.505-0.473c-0.121-0.188-0.188-0.385-0.208-0.604
		c-0.022-0.22,0.021-0.417,0.121-0.615c0.098-0.198,0.264-0.362,0.494-0.494c0.308-0.176,0.648-0.209,1.021-0.1
		c0.374,0.11,0.691,0.265,0.956,0.483c0.34-0.252,0.691-0.473,1.054-0.648s0.735-0.296,1.109-0.351
		c0.374-0.066,0.758-0.055,1.153,0.034c0.384,0.075,0.769,0.241,1.153,0.504c0.187,0.121,0.362,0.264,0.527,0.451
		c0.153,0.186,0.252,0.384,0.296,0.615c0.065,0.34,0.044,0.626-0.077,0.877c-0.12,0.254-0.296,0.431-0.505,0.551
		c-0.219,0.11-0.461,0.144-0.725,0.1c-0.274-0.044-0.527-0.197-0.769-0.44c-0.088-0.055-0.143-0.1-0.176-0.131
		c-0.033-0.034-0.099-0.079-0.208-0.133c-0.22-0.043-0.428-0.033-0.637,0.044c-0.209,0.078-0.417,0.199-0.604,0.33
		c-0.199,0.144-0.385,0.296-0.549,0.472c-0.165,0.166-0.318,0.32-0.45,0.451v5.152c0,0.199-0.044,0.396-0.121,0.583
		c-0.121,0.319-0.319,0.527-0.583,0.648c-0.263,0.122-0.527,0.153-0.779,0.1c-0.264-0.057-0.495-0.188-0.692-0.396
		c-0.198-0.221-0.297-0.496-0.297-0.835V129.916L57.548,129.916z"/>
	<path fill-rule="evenodd" clip-rule="evenodd" fill="#A1A1A1" d="M72.733,127.191c0.165-0.264,0.362-0.451,0.615-0.55
		c0.241-0.11,0.472-0.132,0.713-0.077c0.231,0.055,0.44,0.176,0.626,0.363c0.176,0.186,0.286,0.438,0.33,0.747
		c0.033,0.23-0.011,0.56-0.131,0.978c-0.11,0.417-0.253,0.846-0.418,1.285c-0.175,0.45-0.34,0.868-0.516,1.274
		c-0.175,0.407-0.319,0.726-0.428,0.944c-0.461,1.012-0.955,2.001-1.493,2.979c-0.538,0.967-1.087,1.934-1.658,2.89
		c-0.077,0.143-0.176,0.329-0.286,0.538c-0.099,0.221-0.208,0.44-0.329,0.67c-0.11,0.232-0.231,0.439-0.352,0.649
		c-0.121,0.198-0.231,0.352-0.341,0.439c-0.241,0.231-0.494,0.362-0.746,0.407c-0.264,0.043-0.494,0.01-0.703-0.101
		c-0.209-0.11-0.373-0.274-0.505-0.505c-0.121-0.231-0.176-0.505-0.154-0.824c0.022-0.133,0.077-0.285,0.165-0.483
		c0.099-0.187,0.208-0.395,0.33-0.604c0.12-0.209,0.241-0.406,0.362-0.594c0.121-0.188,0.208-0.341,0.274-0.462
		c0.275-0.45,0.538-0.89,0.78-1.34c0.252-0.44,0.505-0.89,0.758-1.329c-0.889-0.747-1.658-1.571-2.306-2.474
		c-0.66-0.91-1.153-1.911-1.505-3c-0.065-0.197-0.142-0.383-0.208-0.569c-0.065-0.188-0.087-0.386-0.055-0.584
		c0.022-0.23,0.087-0.439,0.187-0.616c0.099-0.186,0.231-0.328,0.396-0.448c0.164-0.11,0.351-0.177,0.56-0.188
		c0.208-0.011,0.417,0.033,0.637,0.144c0.176,0.087,0.308,0.22,0.406,0.396c0.099,0.165,0.187,0.341,0.252,0.537
		c0.066,0.198,0.132,0.396,0.176,0.594c0.044,0.209,0.099,0.385,0.176,0.55c0.538,1.329,1.351,2.473,2.438,3.417
		c0.396-0.813,0.736-1.626,1.053-2.439c0.308-0.813,0.583-1.648,0.824-2.493L72.733,127.191L72.733,127.191z"/>
	<path fill-rule="evenodd" clip-rule="evenodd" fill="#A1A1A1" d="M88.479,131.696c-0.044,0.22-0.077,0.429-0.099,0.636
		c-0.033,0.21-0.033,0.419,0,0.638c0.044,0.308,0.121,0.594,0.252,0.847c0.131,0.264,0.296,0.461,0.505,0.604
		c0.208,0.154,0.45,0.229,0.714,0.242c0.274,0,0.56-0.088,0.867-0.254c0.396-0.23,0.725-0.581,1.01-1.065
		c0.286-0.473,0.461-0.978,0.527-1.493c0.065-0.518,0.011-1.012-0.165-1.474c-0.176-0.472-0.516-0.802-1.032-1
		c-0.329,0-0.636,0.067-0.922,0.188c-0.285,0.131-0.527,0.297-0.735,0.506c-0.208,0.208-0.396,0.46-0.549,0.735
		C88.698,131.092,88.577,131.389,88.479,131.696L88.479,131.696L88.479,131.696z M86.052,131.279
		c0.099-0.396,0.231-0.781,0.396-1.154c0.176-0.385,0.373-0.736,0.614-1.088c0.242-0.341,0.516-0.649,0.824-0.935
		c0.296-0.286,0.625-0.516,0.977-0.691c0.615-0.319,1.241-0.483,1.867-0.495c0.626,0,1.208,0.121,1.746,0.373
		c0.538,0.265,0.999,0.637,1.373,1.143c0.384,0.507,0.625,1.111,0.746,1.814c0.065,0.45,0.11,0.889,0.11,1.295
		c0.011,0.419-0.033,0.847-0.131,1.287c-0.132,0.637-0.407,1.263-0.812,1.89c-0.407,0.626-0.901,1.153-1.472,1.57
		c-0.571,0.43-1.197,0.715-1.878,0.847c-0.68,0.131-1.361,0.021-2.053-0.329c-0.308-0.144-0.593-0.32-0.834-0.518
		c-0.253-0.187-0.472-0.417-0.681-0.692c-0.23-0.296-0.406-0.603-0.538-0.933c-0.121-0.32-0.23-0.66-0.308-1.001
		c-0.099-0.385-0.131-0.759-0.099-1.144c0.022-0.384,0.077-0.757,0.143-1.119L86.052,131.279L86.052,131.279z"/>
	<path fill-rule="evenodd" clip-rule="evenodd" fill="#A1A1A1" d="M99.645,135.575c-0.043,0.296-0.143,0.549-0.318,0.769
		s-0.384,0.362-0.604,0.45c-0.23,0.077-0.472,0.077-0.714,0c-0.241-0.088-0.439-0.264-0.604-0.55
		c-0.065-0.11-0.121-0.219-0.165-0.34c-0.033-0.121-0.055-0.241-0.055-0.363v-5.317c-0.252,0-0.494-0.066-0.703-0.209
		c-0.208-0.144-0.363-0.319-0.461-0.527c-0.098-0.209-0.131-0.429-0.109-0.671c0.022-0.229,0.132-0.45,0.318-0.659
		c0.143-0.143,0.285-0.241,0.439-0.284c0.154-0.057,0.319-0.078,0.495-0.101c-0.011-0.418-0.022-0.824-0.033-1.229
		c0-0.396,0.021-0.803,0.087-1.209c0.088-0.638,0.274-1.175,0.571-1.615c0.296-0.45,0.658-0.791,1.098-1.033s0.922-0.385,1.46-0.417
		c0.549-0.044,1.098,0.032,1.68,0.241c0.242,0.077,0.473,0.176,0.703,0.298c0.219,0.12,0.416,0.274,0.594,0.461
		c0.121,0.143,0.207,0.296,0.262,0.483c0.055,0.175,0.055,0.363,0.023,0.539c-0.033,0.186-0.1,0.351-0.199,0.506
		c-0.098,0.153-0.24,0.272-0.428,0.352c-0.264,0.109-0.516,0.141-0.758,0.087c-0.252-0.055-0.494-0.143-0.746-0.263
		c-0.143-0.056-0.287-0.11-0.418-0.166c-0.131-0.055-0.274-0.089-0.428-0.12c-0.143-0.022-0.285,0-0.406,0.065
		c-0.12,0.065-0.22,0.154-0.308,0.264c-0.087,0.12-0.153,0.253-0.197,0.384c-0.055,0.144-0.077,0.286-0.077,0.418
		c-0.011,0.309-0.011,0.625-0.011,0.945c0.011,0.308,0.011,0.626,0.011,0.935c0.208-0.013,0.417-0.022,0.648-0.044
		c0.23-0.013,0.449-0.013,0.68-0.013c0.219,0,0.418,0,0.615,0.013c0.188,0.021,0.33,0.044,0.439,0.087
		c0.221,0.076,0.396,0.198,0.527,0.374c0.131,0.164,0.219,0.353,0.264,0.538c0.033,0.197,0.021,0.396-0.055,0.604
		c-0.078,0.198-0.197,0.374-0.396,0.518c-0.176,0.143-0.373,0.23-0.604,0.285s-0.473,0.099-0.725,0.109
		c-0.253,0.023-0.505,0.033-0.746,0.023c-0.242,0-0.461-0.012-0.648-0.012V135.575L99.645,135.575z"/>
	<path fill-rule="evenodd" clip-rule="evenodd" fill="#A1A1A1" d="M116.529,129.916c-0.307,0.175-0.537,0.396-0.68,0.659
		c-0.154,0.264-0.264,0.626-0.33,1.1c0.352-0.1,0.748-0.221,1.186-0.342c0.441-0.121,0.848-0.252,1.242-0.385
		c0.383-0.131,0.713-0.285,0.986-0.438c0.266-0.165,0.406-0.342,0.406-0.528c0-0.11-0.021-0.208-0.055-0.318
		c-0.031-0.099-0.098-0.165-0.207-0.209c-0.385-0.132-0.77-0.165-1.174-0.077c-0.406,0.077-0.736,0.188-1.012,0.342L116.529,129.916
		L116.529,129.916z M120.615,133.399c0.318-0.089,0.604-0.089,0.855-0.012c0.242,0.065,0.439,0.197,0.57,0.373
		c0.133,0.176,0.199,0.385,0.188,0.648c-0.021,0.254-0.133,0.518-0.352,0.802c-0.176,0.231-0.416,0.43-0.725,0.583
		c-0.307,0.165-0.594,0.297-0.867,0.385c-0.658,0.242-1.285,0.417-1.877,0.505c-0.594,0.1-1.143,0.1-1.67,0
		c-0.516-0.088-1-0.286-1.449-0.582c-0.449-0.297-0.867-0.714-1.262-1.253c-0.264-0.361-0.473-0.78-0.594-1.241
		c-0.131-0.461-0.197-0.945-0.209-1.429c-0.021-0.482,0.021-0.955,0.121-1.428c0.088-0.473,0.221-0.901,0.396-1.275
		c0.23-0.472,0.592-0.9,1.098-1.295c0.494-0.386,1.043-0.704,1.646-0.924c0.615-0.23,1.23-0.362,1.865-0.396
		c0.627-0.033,1.188,0.066,1.67,0.286c0.406,0.197,0.758,0.462,1.043,0.823c0.287,0.352,0.484,0.747,0.594,1.166
		c0.109,0.417,0.121,0.834,0.033,1.262c-0.088,0.419-0.309,0.803-0.66,1.154c-0.34,0.341-0.701,0.616-1.109,0.824
		c-0.406,0.209-0.822,0.386-1.25,0.539c-0.43,0.163-0.867,0.285-1.318,0.395c-0.461,0.11-0.889,0.231-1.307,0.362
		c0.285,0.33,0.604,0.528,0.967,0.616s0.746,0.109,1.141,0.054c0.396-0.054,0.803-0.164,1.209-0.328
		c0.395-0.177,0.779-0.353,1.121-0.562L120.615,133.399L120.615,133.399z"/>
	<path fill-rule="evenodd" clip-rule="evenodd" fill="#A1A1A1" d="M128.773,130.322v-0.285c-0.119-0.308-0.318-0.527-0.594-0.648
		c-0.264-0.133-0.559-0.209-0.865-0.241c-0.176,0.054-0.32,0.121-0.418,0.187c-0.109,0.065-0.209,0.142-0.285,0.22
		c-0.088,0.087-0.154,0.176-0.221,0.274c-0.076,0.1-0.154,0.209-0.242,0.318v5.285c0,0.417-0.131,0.747-0.383,0.979
		c-0.242,0.241-0.518,0.373-0.824,0.405c-0.297,0.034-0.582-0.032-0.834-0.22c-0.252-0.186-0.395-0.483-0.406-0.922
		c-0.021-1.033-0.033-2.209-0.033-3.527c0.012-1.329,0.012-2.803,0.012-4.429c0-0.284,0.086-0.517,0.252-0.702
		c0.164-0.198,0.373-0.318,0.604-0.384c0.242-0.067,0.482-0.067,0.736,0.01c0.24,0.065,0.449,0.22,0.615,0.45
		c0.746-0.373,1.502-0.494,2.25-0.352c0.746,0.143,1.416,0.494,2.021,1.055c0.273-0.265,0.559-0.506,0.865-0.725
		c0.318-0.209,0.648-0.352,1.012-0.418c0.418-0.077,0.846-0.055,1.262,0.045c0.428,0.098,0.824,0.264,1.186,0.494
		c0.363,0.229,0.682,0.516,0.957,0.845c0.273,0.342,0.482,0.704,0.613,1.101c0.066,0.263,0.1,0.504,0.1,0.725v5.493
		c0,0.165-0.012,0.319-0.055,0.462c-0.121,0.352-0.32,0.594-0.57,0.736c-0.266,0.142-0.539,0.196-0.814,0.153
		c-0.273-0.044-0.516-0.164-0.713-0.384c-0.209-0.21-0.307-0.506-0.307-0.869v-5.428c-0.121-0.33-0.297-0.561-0.527-0.714
		c-0.221-0.144-0.461-0.209-0.703-0.198c-0.24,0.011-0.471,0.1-0.691,0.264c-0.23,0.155-0.406,0.384-0.539,0.66v5.295
		c0,0.363-0.121,0.67-0.352,0.912c-0.24,0.241-0.494,0.396-0.779,0.462s-0.549,0.043-0.801-0.077
		c-0.24-0.121-0.395-0.362-0.428-0.725L128.773,130.322L128.773,130.322z"/>
	<path fill-rule="evenodd" clip-rule="evenodd" fill="#A1A1A1" d="M140.061,131.696c-0.043,0.22-0.076,0.429-0.098,0.636
		c-0.033,0.21-0.033,0.419,0,0.638c0.043,0.308,0.121,0.594,0.252,0.847c0.133,0.264,0.295,0.461,0.506,0.604
		c0.209,0.154,0.449,0.229,0.713,0.242c0.275,0,0.561-0.088,0.867-0.254c0.395-0.23,0.725-0.581,1.01-1.065
		c0.287-0.473,0.461-0.978,0.527-1.493c0.066-0.518,0.012-1.012-0.164-1.474c-0.176-0.472-0.516-0.802-1.031-1
		c-0.33,0-0.637,0.067-0.924,0.188c-0.285,0.131-0.527,0.297-0.736,0.506c-0.207,0.208-0.395,0.46-0.547,0.735
		C140.281,131.092,140.16,131.389,140.061,131.696L140.061,131.696L140.061,131.696z M137.635,131.279
		c0.1-0.396,0.23-0.781,0.395-1.154c0.176-0.385,0.373-0.736,0.617-1.088c0.24-0.341,0.514-0.649,0.822-0.935
		c0.297-0.286,0.625-0.516,0.977-0.691c0.615-0.319,1.242-0.483,1.867-0.495c0.625,0,1.207,0.121,1.746,0.373
		c0.537,0.265,0.998,0.637,1.373,1.143c0.383,0.507,0.625,1.111,0.746,1.814c0.064,0.45,0.109,0.889,0.109,1.295
		c0.01,0.419-0.035,0.847-0.133,1.287c-0.131,0.637-0.406,1.263-0.811,1.89c-0.406,0.626-0.902,1.153-1.473,1.57
		c-0.57,0.43-1.197,0.715-1.877,0.847c-0.682,0.131-1.363,0.021-2.053-0.329c-0.309-0.144-0.594-0.32-0.836-0.518
		c-0.252-0.187-0.473-0.417-0.68-0.692c-0.23-0.296-0.406-0.603-0.539-0.933c-0.121-0.32-0.229-0.66-0.307-1.001
		c-0.1-0.385-0.131-0.759-0.1-1.144c0.021-0.384,0.078-0.757,0.143-1.119L137.635,131.279L137.635,131.279z"/>
	<path fill-rule="evenodd" clip-rule="evenodd" fill="#A1A1A1" d="M148.121,129.377c-0.275-0.065-0.506-0.188-0.703-0.352
		c-0.197-0.153-0.33-0.34-0.406-0.559c-0.066-0.221-0.066-0.44,0-0.672c0.076-0.23,0.242-0.44,0.494-0.626
		c0.219-0.153,0.461-0.241,0.734-0.241c0.266,0,0.527,0,0.781,0c0-0.089,0-0.296-0.012-0.616c-0.021-0.318-0.021-0.659-0.012-1.043
		c0-0.375,0.023-0.736,0.066-1.078c0.045-0.34,0.109-0.581,0.221-0.713c0.273-0.374,0.604-0.561,0.998-0.539
		c0.396,0.022,0.725,0.209,0.979,0.582c0.055,0.065,0.109,0.144,0.152,0.242c0.055,0.088,0.076,0.177,0.076,0.252
		c0.012,0.496,0.012,0.979,0.012,1.462c-0.012,0.483-0.012,0.966-0.012,1.451h1.594c0.24,0,0.451,0.088,0.625,0.241
		c0.176,0.164,0.297,0.352,0.373,0.571c0.076,0.208,0.1,0.44,0.055,0.659c-0.031,0.231-0.131,0.417-0.307,0.571
		c-0.309,0.253-0.67,0.385-1.076,0.406c-0.418,0.012-0.834,0.022-1.264,0.022c0,0.736-0.01,1.473-0.01,2.22
		c-0.012,0.735-0.012,1.482,0.01,2.219c0,0.319,0.012,0.659,0.045,0.988c0.033,0.343,0.012,0.66-0.066,0.968
		c-0.066,0.242-0.188,0.439-0.34,0.583c-0.164,0.143-0.352,0.23-0.549,0.263c-0.197,0.034-0.406,0.022-0.625-0.044
		c-0.221-0.054-0.418-0.175-0.605-0.329c-0.098-0.099-0.164-0.265-0.219-0.483c-0.043-0.231-0.078-0.473-0.088-0.735
		c-0.012-0.298-0.012-0.605,0-0.946c0-0.273,0-0.615,0-1.055c0-0.429,0-0.878-0.012-1.341c0-0.462-0.01-0.9-0.01-1.318
		c0-0.417,0-0.747,0-0.988L148.121,129.377L148.121,129.377z"/>
	<path fill-rule="evenodd" clip-rule="evenodd" fill="#A1A1A1" d="M155.51,124.036c0.055-0.493,0.23-0.856,0.516-1.098
		c0.287-0.23,0.594-0.352,0.922-0.342c0.32,0,0.615,0.133,0.9,0.374c0.275,0.242,0.418,0.584,0.428,1.034
		c0.033,0.45-0.086,0.802-0.35,1.055c-0.264,0.252-0.561,0.396-0.9,0.429c-0.33,0.032-0.648-0.056-0.945-0.274
		c-0.295-0.221-0.482-0.562-0.549-1.033L155.51,124.036L155.51,124.036z M158.178,135.541c-0.021,0.264-0.119,0.506-0.285,0.716
		c-0.154,0.208-0.34,0.361-0.549,0.449c-0.209,0.099-0.439,0.122-0.682,0.066c-0.24-0.055-0.461-0.209-0.646-0.45
		c-0.111-0.133-0.188-0.286-0.23-0.451c-0.045-0.165-0.078-0.341-0.088-0.527c-0.012-0.175-0.023-0.362-0.012-0.55
		c0-0.176,0.012-0.341,0.012-0.494c-0.012-0.79-0.023-1.582-0.012-2.362c0-0.781,0-1.571-0.012-2.362
		c0-0.319-0.021-0.648-0.064-0.978c-0.033-0.33-0.012-0.659,0.064-0.979c0.066-0.241,0.188-0.45,0.352-0.626
		c0.166-0.176,0.361-0.296,0.572-0.361c0.207-0.067,0.416-0.079,0.635-0.023c0.232,0.055,0.418,0.198,0.584,0.418
		c0.207,0.273,0.316,0.538,0.316,0.802s0,0.583,0,0.955c0,0.463,0,0.924,0,1.374c0,0.462,0.012,0.912,0.023,1.363
		c0.01,0.636,0.021,1.284,0.021,1.933s0,1.297,0,1.946V135.541L158.178,135.541z"/>
	<path fill-rule="evenodd" clip-rule="evenodd" fill="#A1A1A1" d="M162.471,131.696c-0.043,0.22-0.076,0.429-0.098,0.636
		c-0.033,0.21-0.033,0.419,0,0.638c0.043,0.308,0.119,0.594,0.25,0.847c0.133,0.264,0.299,0.461,0.506,0.604
		c0.209,0.154,0.451,0.229,0.715,0.242c0.273,0,0.559-0.088,0.867-0.254c0.395-0.23,0.725-0.581,1.01-1.065
		c0.287-0.473,0.461-0.978,0.527-1.493c0.066-0.518,0.012-1.012-0.164-1.474c-0.176-0.472-0.516-0.802-1.033-1
		c-0.33,0-0.637,0.067-0.922,0.188c-0.285,0.131-0.527,0.297-0.736,0.506c-0.209,0.208-0.395,0.46-0.549,0.735
		C162.689,131.092,162.57,131.389,162.471,131.696L162.471,131.696L162.471,131.696z M160.045,131.279
		c0.098-0.396,0.23-0.781,0.395-1.154c0.176-0.385,0.373-0.736,0.615-1.088c0.24-0.341,0.516-0.649,0.824-0.935
		c0.295-0.286,0.625-0.516,0.977-0.691c0.615-0.319,1.24-0.483,1.865-0.495c0.627,0,1.209,0.121,1.746,0.373
		c0.539,0.265,1,0.637,1.375,1.143c0.383,0.507,0.623,1.111,0.746,1.814c0.064,0.45,0.107,0.889,0.107,1.295
		c0.014,0.419-0.031,0.847-0.131,1.287c-0.131,0.637-0.406,1.263-0.811,1.89c-0.408,0.626-0.902,1.153-1.473,1.57
		c-0.57,0.43-1.197,0.715-1.879,0.847c-0.68,0.131-1.361,0.021-2.053-0.329c-0.307-0.144-0.592-0.32-0.834-0.518
		c-0.252-0.187-0.471-0.417-0.682-0.692c-0.23-0.296-0.406-0.603-0.537-0.933c-0.121-0.32-0.23-0.66-0.307-1.001
		c-0.1-0.385-0.131-0.759-0.1-1.144c0.021-0.384,0.078-0.757,0.143-1.119L160.045,131.279L160.045,131.279z"/>
	<path fill-rule="evenodd" clip-rule="evenodd" fill="#A1A1A1" d="M178.193,135.575c-0.031,0.339-0.164,0.614-0.373,0.835
		c-0.207,0.208-0.439,0.339-0.703,0.396c-0.264,0.054-0.516,0.022-0.758-0.1c-0.24-0.121-0.416-0.352-0.527-0.704
		c-0.119-0.385-0.164-0.768-0.141-1.186c0.031-0.407,0.043-0.791,0.043-1.144c0-0.725,0-1.45,0.012-2.164
		c0.01-0.726-0.023-1.45-0.09-2.175c-0.021-0.022-0.031-0.056-0.043-0.065c-0.012-0.022-0.043-0.056-0.076-0.101
		c-0.318-0.076-0.648-0.055-0.988,0.066c-0.352,0.121-0.648,0.275-0.891,0.461c-0.219,0.176-0.426,0.418-0.637,0.715
		c-0.207,0.308-0.316,0.604-0.316,0.879v2.791c0,0.22,0.01,0.45,0.021,0.703c0.01,0.264,0,0.506-0.033,0.758
		c-0.033,0.242-0.111,0.461-0.23,0.659c-0.121,0.21-0.318,0.353-0.582,0.451c-0.154,0.055-0.285,0.066-0.418,0.055
		c-0.121-0.012-0.264-0.044-0.416-0.099c-0.242-0.077-0.418-0.22-0.516-0.418c-0.111-0.188-0.188-0.396-0.23-0.626
		c-0.035-0.22-0.057-0.439-0.045-0.648c0-0.208,0.01-0.373,0.01-0.494c0-0.309-0.01-0.759-0.01-1.342
		c-0.012-0.581-0.012-1.196-0.012-1.845s0-1.264,0-1.846c0-0.594,0-1.033,0-1.353c0-0.296,0.088-0.537,0.264-0.736
		c0.176-0.196,0.373-0.317,0.615-0.384c0.23-0.055,0.482-0.043,0.748,0.045c0.262,0.088,0.482,0.263,0.658,0.538
		c0.537-0.352,1.129-0.594,1.777-0.715c0.637-0.121,1.252-0.099,1.822,0.066c0.572,0.165,1.055,0.462,1.428,0.913
		c0.385,0.438,0.582,1.053,0.605,1.834c0,0.021,0,0.109,0.021,0.241c0.01,0.132,0.01,0.318,0.01,0.56V135.575L178.193,135.575z"/>
	<path fill-rule="evenodd" clip-rule="evenodd" fill="#A1A1A1" d="M179.369,134.75c-0.088-0.231-0.121-0.461-0.109-0.682
		c0.021-0.219,0.076-0.417,0.174-0.604c0.1-0.176,0.242-0.318,0.439-0.429c0.188-0.098,0.418-0.133,0.682-0.109
		c0.152,0.021,0.285,0.055,0.406,0.12c0.121,0.066,0.23,0.154,0.328,0.242c0.1,0.099,0.211,0.197,0.307,0.308
		c0.1,0.11,0.199,0.197,0.309,0.285c0.232,0.175,0.473,0.297,0.725,0.385c0.266,0.076,0.527,0.143,0.813,0.176
		c0.188,0,0.342-0.044,0.451-0.143c0.121-0.088,0.197-0.209,0.242-0.341c0.033-0.131,0.043-0.274,0.021-0.428
		c-0.021-0.166-0.066-0.286-0.143-0.373c-0.23-0.232-0.518-0.386-0.846-0.451c-0.33-0.066-0.637-0.144-0.912-0.241
		c-0.406-0.134-0.801-0.31-1.197-0.518c-0.383-0.208-0.701-0.494-0.943-0.856c-0.264-0.374-0.406-0.78-0.461-1.197
		c-0.043-0.43-0.012-0.847,0.1-1.242c0.119-0.406,0.307-0.779,0.58-1.122c0.264-0.329,0.594-0.603,0.969-0.823
		c0.285-0.164,0.592-0.265,0.932-0.307c0.33-0.055,0.67-0.066,1.021-0.033c0.34,0.021,0.68,0.088,1.01,0.186
		c0.342,0.1,0.648,0.22,0.934,0.342c0.318,0.143,0.561,0.35,0.723,0.626c0.166,0.265,0.242,0.538,0.232,0.813
		c0,0.274-0.1,0.517-0.273,0.715c-0.188,0.208-0.451,0.308-0.803,0.308c-0.221,0-0.406-0.033-0.582-0.109
		c-0.176-0.078-0.361-0.144-0.549-0.221c-0.24-0.087-0.506-0.153-0.791-0.188c-0.273-0.031-0.504-0.021-0.68,0.056
		c-0.055,0.011-0.121,0.055-0.188,0.132c-0.066,0.066-0.121,0.164-0.152,0.264c-0.035,0.11-0.035,0.221-0.012,0.33
		c0.012,0.11,0.088,0.198,0.209,0.263c0.318,0.177,0.67,0.31,1.031,0.396c0.363,0.099,0.715,0.209,1.066,0.329
		c0.352,0.121,0.68,0.275,0.977,0.462c0.307,0.187,0.561,0.461,0.756,0.813c0.299,0.505,0.451,1.044,0.463,1.604
		c0,0.561-0.109,1.076-0.34,1.562c-0.23,0.493-0.561,0.899-1.012,1.24c-0.439,0.352-0.955,0.55-1.547,0.627
		c-0.418,0.033-0.834,0.01-1.23-0.077c-0.406-0.089-0.803-0.23-1.174-0.428c-0.375-0.188-0.727-0.418-1.055-0.694
		c-0.318-0.263-0.604-0.547-0.846-0.845L179.369,134.75L179.369,134.75z"/>
	<path fill-rule="evenodd" clip-rule="evenodd" fill="#FF9900" d="M13.374,76.518c0.151-1.429,0.649-2.479,1.472-3.16
		c0.833-0.672,1.709-0.997,2.639-0.986c0.92,0.021,1.786,0.379,2.576,1.072c0.79,0.704,1.201,1.678,1.244,2.956
		c0.076,1.31-0.26,2.327-1.017,3.042c-0.747,0.715-1.612,1.126-2.575,1.213c-0.962,0.097-1.871-0.163-2.715-0.779
		c-0.854-0.617-1.374-1.603-1.568-2.956L13.374,76.518L13.374,76.518z M21.011,109.475c-0.076,0.779-0.346,1.461-0.812,2.057
		c-0.465,0.595-0.995,1.04-1.59,1.31c-0.595,0.259-1.244,0.324-1.936,0.173c-0.692-0.162-1.309-0.584-1.851-1.277
		c-0.313-0.389-0.529-0.822-0.67-1.31c-0.13-0.476-0.217-0.976-0.26-1.505c-0.044-0.521-0.044-1.039-0.033-1.559
		c0.022-0.52,0.033-0.996,0.033-1.419c-0.044-2.284-0.044-4.536-0.033-6.777c0.022-2.241,0.011-4.503-0.021-6.777
		c0-0.931-0.065-1.862-0.172-2.814c-0.12-0.942-0.065-1.884,0.172-2.804c0.185-0.692,0.53-1.299,1.007-1.797
		c0.487-0.498,1.027-0.844,1.623-1.039c0.595-0.195,1.211-0.216,1.849-0.065c0.639,0.163,1.19,0.563,1.655,1.223
		c0.618,0.769,0.92,1.538,0.92,2.284c0,0.758,0,1.668,0,2.75c0,1.31,0,2.63,0,3.94c0,1.31,0.022,2.609,0.065,3.875
		c0.033,1.862,0.054,3.714,0.054,5.565c0,1.851,0,3.712,0,5.564V109.475L21.011,109.475z"/>
	<path fill-rule="evenodd" clip-rule="evenodd" fill="#CCCC33" d="M50.1,109.593c-0.12,0.964-0.477,1.755-1.071,2.371
		c-0.606,0.617-1.276,1.007-2.034,1.158c-0.747,0.163-1.471,0.064-2.164-0.281c-0.703-0.356-1.201-1.029-1.503-2.035
		c-0.357-1.082-0.487-2.21-0.412-3.39c0.077-1.18,0.12-2.262,0.12-3.269c0-2.09,0.01-4.158,0.021-6.226
		c0.021-2.067-0.064-4.146-0.26-6.225c-0.033-0.076-0.076-0.151-0.109-0.206c-0.043-0.054-0.118-0.141-0.237-0.26
		c-0.887-0.238-1.828-0.173-2.834,0.173c-1.006,0.346-1.85,0.791-2.542,1.332c-0.617,0.498-1.233,1.19-1.828,2.057
		c-0.595,0.866-0.898,1.71-0.898,2.522v7.989c0,0.617,0.022,1.29,0.065,2.024c0.033,0.737,0,1.452-0.086,2.146
		c-0.098,0.692-0.325,1.331-0.671,1.915c-0.346,0.574-0.909,0.996-1.676,1.268c-0.422,0.161-0.823,0.216-1.19,0.184
		c-0.368-0.044-0.757-0.142-1.179-0.292c-0.704-0.238-1.201-0.629-1.516-1.191c-0.302-0.563-0.518-1.159-0.627-1.797
		c-0.119-0.639-0.173-1.256-0.151-1.852s0.032-1.072,0.032-1.418c0-0.888-0.011-2.177-0.032-3.854
		c-0.021-1.679-0.021-3.443-0.021-5.294c0-1.862,0-3.627,0-5.305c0-1.678,0-2.966,0-3.854c0-0.844,0.249-1.547,0.746-2.111
		c0.499-0.562,1.093-0.931,1.764-1.104c0.681-0.173,1.395-0.13,2.142,0.119c0.758,0.249,1.385,0.758,1.882,1.538
		c1.547-1.007,3.246-1.678,5.095-2.024c1.851-0.357,3.603-0.292,5.237,0.173c1.644,0.455,3.007,1.332,4.11,2.598
		c1.104,1.277,1.666,3.031,1.709,5.273c0,0.075,0.022,0.313,0.054,0.693c0.043,0.389,0.065,0.931,0.065,1.624V109.593L50.1,109.593z
		"/>
	<path fill-rule="evenodd" clip-rule="evenodd" fill="#99CCFF" d="M63.447,107.504c0.422,0.389,0.778,0.876,1.071,1.483
		c0.281,0.595,0.443,1.19,0.454,1.797c0.021,0.595-0.108,1.158-0.4,1.678c-0.292,0.52-0.801,0.909-1.537,1.18
		c-0.573,0.195-1.211,0.238-1.904,0.119c-0.703-0.119-1.384-0.347-2.056-0.692c-0.681-0.346-1.276-0.769-1.795-1.245
		c-0.519-0.487-0.898-1.018-1.136-1.592c-0.076-0.193-0.13-0.422-0.173-0.671c-0.033-0.249-0.054-0.465-0.054-0.66V76.746
		c0-0.888,0.335-1.635,1.017-2.251c0.671-0.618,1.418-0.986,2.229-1.104c0.379-0.043,0.8,0.021,1.244,0.173
		c0.444,0.151,0.855,0.378,1.244,0.67c0.378,0.282,0.703,0.628,0.952,1.007c0.249,0.39,0.378,0.791,0.378,1.224
		c0,0.996,0,2.328,0,3.995c0,1.656,0.011,3.475,0.021,5.445c0.022,1.971,0.032,4.006,0.032,6.106s-0.01,4.125-0.032,6.052
		c-0.011,1.938-0.021,3.703-0.021,5.305c0,1.603-0.022,2.881-0.065,3.854L63.447,107.504L63.447,107.504z"/>
	<path fill-rule="evenodd" clip-rule="evenodd" fill="#663399" d="M93.616,106.582c0.346,0.499,0.552,1.084,0.606,1.766
		c0.053,0.672-0.022,1.31-0.228,1.906c-0.216,0.606-0.562,1.094-1.049,1.482c-0.476,0.39-1.104,0.563-1.882,0.52
		c-0.995-0.074-1.807-0.422-2.423-1.038c-0.617-0.618-1.201-1.322-1.742-2.091c-1.503,1.235-3.061,2.101-4.662,2.576
		c-1.602,0.488-3.17,0.597-4.717,0.325c-1.537-0.27-2.986-0.919-4.338-1.948c-1.353-1.018-2.488-2.402-3.419-4.136
		c-0.843-1.624-1.319-3.421-1.417-5.392c-0.097-1.97-0.12-3.844-0.086-5.618c0-0.618,0.021-1.224,0.064-1.819
		c0.033-0.606,0.076-1.234,0.108-1.884c0.043-0.509,0.065-0.996,0.065-1.483c0-0.476,0.022-0.931,0.086-1.354
		c0.054-0.432,0.173-0.855,0.347-1.277c0.173-0.422,0.432-0.833,0.779-1.213c0.465-0.509,1.028-0.801,1.677-0.898
		c0.66-0.098,1.287-0.033,1.882,0.195c0.595,0.238,1.125,0.596,1.569,1.072c0.444,0.488,0.681,1.072,0.714,1.775
		c0.086,1.96,0.032,3.952-0.141,5.965c-0.173,2.003-0.162,3.974,0.032,5.9c0.076,0.932,0.314,1.873,0.725,2.848
		c0.4,0.963,1.049,1.656,1.937,2.078c0.887,0.391,1.785,0.357,2.694-0.087c0.898-0.443,1.645-0.974,2.229-1.591
		c0.271-0.314,0.53-0.649,0.78-1.018c0.248-0.369,0.529-0.683,0.832-0.953c-0.151-1.353-0.249-2.706-0.281-4.049
		c-0.043-1.353-0.043-2.706,0-4.06c0-0.737,0.022-1.538,0.086-2.404c0.054-0.866,0.206-1.7,0.465-2.49
		c0.25-0.791,0.617-1.483,1.125-2.09c0.497-0.595,1.212-0.974,2.142-1.126c0.422-0.076,0.833-0.043,1.245,0.119
		c0.4,0.152,0.757,0.369,1.071,0.639c0.541,0.455,0.909,0.985,1.093,1.56c0.195,0.584,0.292,1.202,0.292,1.851
		c0,0.66-0.043,1.321-0.14,2.003c-0.097,0.671-0.162,1.299-0.206,1.884c-0.075,1.082-0.129,2.219-0.172,3.41
		c-0.032,1.202,0,2.404,0.119,3.595c0.108,1.202,0.335,2.359,0.661,3.476C92.469,104.634,92.956,105.651,93.616,106.582
		L93.616,106.582L93.616,106.582z"/>
	<path fill-rule="evenodd" clip-rule="evenodd" fill="#FF9900" d="M97.212,107.221c-0.228-0.66-0.325-1.309-0.281-1.947
		c0.033-0.64,0.194-1.213,0.488-1.732c0.292-0.52,0.702-0.931,1.244-1.223c0.541-0.283,1.201-0.391,1.969-0.315
		c0.422,0.044,0.813,0.152,1.158,0.347c0.346,0.195,0.67,0.422,0.951,0.693c0.293,0.27,0.584,0.563,0.877,0.877
		c0.281,0.303,0.584,0.573,0.887,0.801c0.66,0.51,1.352,0.877,2.088,1.104c0.734,0.238,1.504,0.412,2.314,0.521
		c0.541,0,0.975-0.131,1.299-0.401c0.336-0.271,0.553-0.596,0.672-0.985c0.117-0.391,0.139-0.801,0.086-1.244
		c-0.055-0.445-0.205-0.802-0.432-1.072c-0.662-0.66-1.461-1.083-2.404-1.277c-0.951-0.195-1.828-0.422-2.639-0.693
		c-1.156-0.39-2.293-0.877-3.408-1.473c-1.125-0.606-2.023-1.429-2.726-2.468c-0.724-1.082-1.168-2.23-1.298-3.442
		c-0.141-1.224-0.043-2.404,0.292-3.562c0.325-1.159,0.876-2.22,1.645-3.193c0.779-0.964,1.699-1.754,2.779-2.372
		c0.813-0.466,1.701-0.758,2.662-0.898c0.963-0.13,1.938-0.163,2.922-0.087s1.959,0.26,2.922,0.553
		c0.973,0.292,1.859,0.605,2.672,0.952c0.92,0.434,1.611,1.029,2.076,1.797s0.691,1.559,0.672,2.349
		c-0.023,0.791-0.293,1.473-0.813,2.057c-0.52,0.574-1.287,0.867-2.295,0.867c-0.613,0-1.166-0.109-1.676-0.314
		c-0.496-0.216-1.016-0.422-1.557-0.617c-0.693-0.271-1.451-0.455-2.262-0.541c-0.813-0.098-1.461-0.055-1.969,0.14
		c-0.152,0.044-0.326,0.163-0.52,0.379c-0.193,0.206-0.334,0.465-0.434,0.78c-0.096,0.303-0.119,0.617-0.053,0.931
		c0.053,0.303,0.26,0.552,0.605,0.748c0.92,0.498,1.904,0.887,2.953,1.158c1.039,0.271,2.066,0.584,3.063,0.931
		c1.006,0.347,1.947,0.791,2.813,1.332c0.865,0.542,1.59,1.311,2.162,2.317c0.855,1.461,1.289,2.999,1.311,4.602
		c0.021,1.602-0.303,3.096-0.953,4.492c-0.66,1.387-1.621,2.576-2.898,3.562c-1.277,0.986-2.758,1.57-4.457,1.765
		c-1.201,0.119-2.369,0.044-3.527-0.205s-2.283-0.65-3.365-1.213c-1.08-0.562-2.076-1.223-3.006-2.004
		c-0.919-0.768-1.731-1.579-2.435-2.423L97.212,107.221L97.212,107.221z"/>
	<path fill-rule="evenodd" clip-rule="evenodd" fill="#CCCC33" d="M122.352,76.518c0.15-1.429,0.65-2.479,1.473-3.16
		c0.832-0.672,1.709-0.997,2.639-0.986c0.92,0.021,1.785,0.379,2.574,1.072c0.791,0.704,1.201,1.678,1.244,2.956
		c0.076,1.31-0.26,2.327-1.016,3.042c-0.746,0.715-1.613,1.126-2.576,1.213c-0.961,0.097-1.871-0.163-2.715-0.779
		c-0.854-0.617-1.373-1.603-1.568-2.956L122.352,76.518L122.352,76.518z M129.99,109.475c-0.076,0.779-0.348,1.461-0.813,2.057
		c-0.465,0.595-0.994,1.04-1.59,1.31c-0.596,0.259-1.244,0.324-1.938,0.173c-0.691-0.162-1.309-0.584-1.848-1.277
		c-0.314-0.389-0.531-0.822-0.672-1.31c-0.129-0.476-0.217-0.976-0.26-1.505c-0.043-0.521-0.043-1.039-0.033-1.559
		c0.023-0.52,0.033-0.996,0.033-1.419c-0.043-2.284-0.043-4.536-0.033-6.777c0.023-2.241,0.01-4.503-0.021-6.777
		c0-0.931-0.064-1.862-0.174-2.814c-0.119-0.942-0.063-1.884,0.174-2.804c0.186-0.692,0.531-1.299,1.008-1.797
		c0.486-0.498,1.027-0.844,1.623-1.039c0.594-0.195,1.209-0.216,1.85-0.065c0.637,0.163,1.189,0.563,1.654,1.223
		c0.617,0.769,0.92,1.538,0.92,2.284c0,0.758,0,1.668,0,2.75c0,1.31,0,2.63,0,3.94c0,1.31,0.021,2.609,0.064,3.875
		c0.033,1.862,0.055,3.714,0.055,5.565c0,1.851,0,3.712,0,5.564V109.475L129.99,109.475z"/>
	<path fill-rule="evenodd" clip-rule="evenodd" fill="#663399" d="M186.504,109.593c-0.119,0.964-0.477,1.755-1.072,2.371
		c-0.605,0.617-1.277,1.007-2.033,1.158c-0.746,0.163-1.473,0.064-2.164-0.281c-0.703-0.356-1.201-1.029-1.504-2.035
		c-0.357-1.082-0.486-2.21-0.41-3.39c0.074-1.18,0.117-2.262,0.117-3.269c0-2.09,0.012-4.158,0.021-6.226
		c0.021-2.067-0.064-4.146-0.258-6.225c-0.033-0.076-0.076-0.151-0.109-0.206c-0.043-0.054-0.117-0.141-0.236-0.26
		c-0.887-0.238-1.83-0.173-2.836,0.173c-1.006,0.346-1.85,0.791-2.541,1.332c-0.617,0.498-1.234,1.19-1.83,2.057
		c-0.594,0.866-0.898,1.71-0.898,2.522v7.989c0,0.617,0.023,1.29,0.066,2.024c0.031,0.737,0,1.452-0.088,2.146
		c-0.096,0.692-0.324,1.331-0.67,1.915c-0.346,0.574-0.908,0.996-1.676,1.268c-0.422,0.161-0.822,0.216-1.191,0.184
		c-0.367-0.044-0.756-0.142-1.18-0.292c-0.703-0.238-1.201-0.629-1.514-1.191c-0.303-0.563-0.52-1.159-0.627-1.797
		c-0.119-0.639-0.174-1.256-0.152-1.852s0.033-1.072,0.033-1.418c0-0.888-0.012-2.177-0.033-3.854
		c-0.021-1.679-0.021-3.443-0.021-5.294c0-1.862,0-3.627,0-5.305c0-1.678,0-2.966,0-3.854c0-0.844,0.248-1.547,0.746-2.111
		c0.498-0.562,1.094-0.931,1.764-1.104c0.682-0.173,1.395-0.13,2.143,0.119c0.758,0.249,1.385,0.758,1.883,1.538
		c1.547-1.007,3.246-1.678,5.096-2.024c1.85-0.357,3.602-0.292,5.236,0.173c1.643,0.455,3.008,1.332,4.109,2.598
		c1.105,1.277,1.668,3.031,1.711,5.273c0,0.075,0.021,0.313,0.055,0.693c0.043,0.389,0.064,0.931,0.064,1.624V109.593
		L186.504,109.593z"/>
	<path fill-rule="evenodd" clip-rule="evenodd" fill="#99CCFF" d="M141.93,98.475c-0.117,0.617-0.217,1.223-0.291,1.818
		c-0.076,0.596-0.076,1.213,0,1.829c0.119,0.888,0.357,1.7,0.725,2.426c0.367,0.735,0.846,1.32,1.449,1.743
		c0.596,0.423,1.277,0.65,2.055,0.66c0.77,0.021,1.604-0.217,2.49-0.715c1.115-0.66,2.076-1.678,2.889-3.042
		c0.811-1.375,1.318-2.804,1.504-4.287c0.193-1.494,0.043-2.901-0.455-4.233c-0.508-1.331-1.494-2.284-2.953-2.868
		c-0.963,0-1.861,0.184-2.662,0.552c-0.813,0.368-1.514,0.855-2.119,1.45c-0.596,0.596-1.115,1.3-1.559,2.112
		C142.559,96.731,142.201,97.586,141.93,98.475L141.93,98.475L141.93,98.475z M134.984,97.251c0.271-1.115,0.65-2.22,1.127-3.302
		c0.486-1.083,1.07-2.111,1.762-3.096c0.705-0.985,1.482-1.884,2.35-2.695c0.865-0.813,1.805-1.462,2.801-1.971
		c1.785-0.92,3.57-1.396,5.355-1.418c1.797-0.011,3.473,0.347,5.01,1.072c1.545,0.736,2.855,1.829,3.938,3.28
		c1.082,1.439,1.795,3.172,2.143,5.175c0.193,1.321,0.303,2.566,0.313,3.746c0.023,1.169-0.098,2.403-0.367,3.67
		c-0.391,1.819-1.168,3.627-2.348,5.424c-1.18,1.787-2.586,3.292-4.23,4.515c-1.633,1.213-3.43,2.015-5.377,2.404
		s-3.906,0.075-5.875-0.932c-0.887-0.423-1.688-0.909-2.402-1.473c-0.713-0.563-1.363-1.223-1.947-2.003
		c-0.648-0.844-1.156-1.731-1.525-2.663c-0.367-0.921-0.67-1.894-0.898-2.89c-0.27-1.084-0.367-2.177-0.291-3.281
		c0.076-1.093,0.217-2.165,0.4-3.215L134.984,97.251L134.984,97.251z"/>
</g>
</svg>
